<?xml version="1.0" encoding="UTF-8" standalone="no"?>
<!-- Created with Inkscape (http://www.inkscape.org/) -->

<svg
   width="512"
   height="512"
   viewBox="0 0 135.46667 135.46667"
   version="1.1"
   id="svg5"
   sodipodi:docname="drawing.svg"
   xml:space="preserve"
   inkscape:version="1.2.1 (9c6d41e410, 2022-07-14)"
   xmlns:inkscape="http://www.inkscape.org/namespaces/inkscape"
   xmlns:sodipodi="http://sodipodi.sourceforge.net/DTD/sodipodi-0.dtd"
   xmlns="http://www.w3.org/2000/svg"
   xmlns:svg="http://www.w3.org/2000/svg"><sodipodi:namedview
     id="namedview7"
     pagecolor="#505050"
     bordercolor="#eeeeee"
     borderopacity="1"
     inkscape:showpageshadow="0"
     inkscape:pageopacity="0"
     inkscape:pagecheckerboard="true"
     inkscape:deskcolor="#505050"
     inkscape:document-units="px"
     showgrid="false"
     inkscape:zoom="1.829812"
     inkscape:cx="297.02505"
     inkscape:cy="260.68252"
     inkscape:window-width="2358"
     inkscape:window-height="1371"
     inkscape:window-x="20"
     inkscape:window-y="20"
     inkscape:window-maximized="0"
     inkscape:current-layer="layer1"
     showguides="false" /><defs
     id="defs2"><filter
       style="color-interpolation-filters:sRGB"
       inkscape:label="Drop Shadow"
       id="filter31746"
       x="-0.32023393"
       y="-0.32023393"
       width="1.6404679"
       height="1.6404679"><feFlood
         flood-opacity="0.898039"
         flood-color="rgb(0,0,0)"
         result="flood"
         id="feFlood31736" /><feComposite
         in="flood"
         in2="SourceGraphic"
         operator="out"
         result="composite1"
         id="feComposite31738" /><feGaussianBlur
         in="composite1"
         stdDeviation="5"
         result="blur"
         id="feGaussianBlur31740" /><feOffset
         dx="-2.77556e-17"
         dy="0"
         result="offset"
         id="feOffset31742" /><feComposite
         in="offset"
         in2="SourceGraphic"
         operator="in"
         result="composite2"
         id="feComposite31744" /></filter><filter
       style="color-interpolation-filters:sRGB;"
       inkscape:label="Drop Shadow"
       id="filter37337"
       x="-0.010299207"
       y="-0.010299165"
       width="1.0205984"
       height="1.0205983"><feFlood
         flood-opacity="0.898039"
         flood-color="rgb(0,0,0)"
         result="flood"
         id="feFlood37327" /><feComposite
         in="flood"
         in2="SourceGraphic"
         operator="in"
         result="composite1"
         id="feComposite37329" /><feGaussianBlur
         in="composite1"
         stdDeviation="0.00023253779"
         result="blur"
         id="feGaussianBlur37331" /><feOffset
         dx="-2.77556e-17"
         dy="0"
         result="offset"
         id="feOffset37333" /><feComposite
         in="SourceGraphic"
         in2="offset"
         operator="over"
         result="composite2"
         id="feComposite37335" /></filter></defs><g
     inkscape:label="Layer 1"
     inkscape:groupmode="layer"
     id="layer1"><rect
       style="fill:#160d1d;fill-opacity:1;stroke:none;stroke-width:0.408305;stroke-dasharray:none;stroke-opacity:1"
       id="rect10436"
       width="135.46667"
       height="135.46667"
       x="-8.8817842e-16"
       y="-4.4408921e-16"
       inkscape:label="Background" /><g
       id="g50924"><g
         id="circle16064"
         inkscape:label="Earth"
         style="display:inline"
         transform="matrix(2.5135865,0,0,2.5135865,22.488778,22.488778)"><path
           style="color:#000000;fill:#ffffff;stroke-width:1.00001;-inkscape-stroke:none"
           d="M 18,-0.73650856 C 7.6605728,-0.73650856 -0.73650856,7.6605728 -0.73650856,18 -0.73650856,28.339428 7.6605728,36.736509 18,36.736509 28.339428,36.736509 36.736509,28.339428 36.736509,18 36.736509,7.6605728 28.339428,-0.73650856 18,-0.73650856 Z m 0,1.47267041 C 27.542995,0.73616186 35.263838,8.4570046 35.263838,18 35.263838,27.542995 27.542995,35.263838 18,35.263838 8.4570046,35.263838 0.73616185,27.542995 0.73616185,18 0.73616186,8.4570046 8.4570046,0.73616185 18,0.73616185 Z"
           id="path32007" /><path
           style="color:#000000;display:inline;fill:#678dff;fill-opacity:1;stroke-width:1.41969;-inkscape-stroke:none"
           d="M 35.340749,18 A 17.340749,17.340749 0 0 1 18,35.340749 17.340749,17.340749 0 0 1 0.659251,18 17.340749,17.340749 0 0 1 18,0.659251 17.340749,17.340749 0 0 1 35.340749,18 Z"
           id="path32005" /><path
           fill="#5c913b"
           d="m 24.957941,2.1729492 c -1.022,0.568 -1.872,1.528 -3.028,1.181 -1.875,-0.562 -4.375,-1.812 -6,-0.25 -1.625,1.562 -2,3 0,2.938 2,-0.062 3.375,-2.438 4.375,-1.438 1,1 0.749,1.813 -1.625,2.125 -2.374,0.312 -4.938,0.688 -6.313,0.688 -1.375,0 -1.688,0.812 -0.75,1.688 0.938,0.876 -0.563,0.9369998 -2.1249999,1.8119998 -1.562,0.875 0.375,1.25 1.6879999,2 1.313,0.75 2.312,-0.188 2.875,-1.438 0.563,-1.25 2.981,-2.7499998 3.99,-2.5619998 1.01,0.188 1.01,0.688 0.822,1.5619998 -0.188,0.874 0.75,0.625 0.812,-0.375 0.062,-0.9999998 1.188,-1.7499998 2.062,-1.8119998 0.874,-0.062 1.625,1.188 0.625,1.8119998 -1,0.624 -2,1.125 -0.75,1.438 1.25,0.313 2.125,1.938 0.688,2.625 -1.437,0.687 -3.937,1.125 -5.062,0.562 -1.125,-0.563 -3.688,-1.375 -4.375,-0.938 -0.687,0.437 -1.062,0.89 -1.875,1.195 -0.812,0.305 -4.1249999,1.805 -4.1879999,3.743 -0.063,1.938 -0.124,4.126 1.188,4.188 1.312,0.062 4.4999999,-0.812 5.4999999,-1.625 1,-0.813 2.375,-0.625 2.812,0.312 0.437,0.937 0.125,1.5 -0.312,3 -0.437,1.5 0.286,2.25 0.987,3.562 0.701,1.312 1.263,2.062 1.263,3 0,0.938 1,1.875 2.5,0.312 1.5,-1.563 2.875,-4.625 3.5,-5.75 0.625,-1.125 1.125,-3.625 1.875,-4.125 0.75,-0.5 1.938,-1.688 1.062,-1.5 -0.876,0.188 -2.625,-0.062 -3.062,-1.312 -0.437,-1.25 -2.312,-3.625 -1.438,-3.875 0.874,-0.25 1.875,1.39 2.25,2.164 0.375,0.774 0.875,1.711 1.625,1.961 0.75,0.25 2.375,-1.673 2.875,-1.961 0.5,-0.289 0.125,-1.476 -0.875,-1.351 -1,0.125 -2.312,0 -2.312,-0.624 0,-0.624 1.25,-1.438 2.25,-1.25 1,0.188 1.75,0.5 2.375,1.25 0.625,0.75 1.875,2.125 2.375,3 0.5,0.875 0.875,1 1.125,-0.562 0.166,-1.038 0.387,-1.609 0.59,-2.222 -1.013,-5.8289998 -4.82,-10.6829998 -9.999,-13.1479998 z"
           id="path16066"
           style="display:inline;fill:#80d12e;fill-opacity:1;stroke:#80d12e;stroke-width:0.673672;stroke-dasharray:none;stroke-opacity:1" /></g><path
         id="path31229"
         style="color:#000000;display:inline;opacity:0.537883;fill:#ffffff;stroke-width:1.47366;-inkscape-stroke:none;filter:url(#filter31746)"
         d="M 18,-0.73630278 C 7.660693,-0.73630278 -0.73630278,7.660693 -0.73630278,18 -0.73630278,28.339308 7.660693,36.736303 18,36.736303 28.339308,36.736303 36.736303,28.339308 36.736303,18 36.736303,7.660693 28.339308,-0.73630278 18,-0.73630278 Z m 6.947245,2.56060408 0.144528,0.068255 c 5.268499,2.5075979 9.141414,7.4452877 10.1719,13.3749677 l 0.01172,0.07627 -0.02344,0.07422 c -0.206052,0.622216 -0.416098,1.160797 -0.578114,2.173892 -0.06452,0.4031 -0.137165,0.705494 -0.230465,0.937483 -0.0933,0.231989 -0.212061,0.433788 -0.459079,0.505748 -0.123509,0.03599 -0.257783,0.01785 -0.359369,-0.02734 -0.101586,-0.04519 -0.179456,-0.110551 -0.251846,-0.183591 -0.144781,-0.146086 -0.26877,-0.333838 -0.400486,-0.56434 -0.458914,-0.803102 -1.707848,-2.192096 -2.343708,-2.955128 -0.5739,-0.688681 -1.228877,-0.96283 -2.195274,-1.144511 -0.396931,-0.07462 -0.898771,0.05634 -1.283283,0.283095 -0.384511,0.226753 -0.597645,0.557545 -0.597645,0.6622 0,0.04719 0.0042,0.06422 0.08799,0.123148 0.08377,0.05893 0.24444,0.1244 0.445304,0.16591 0.401729,0.08303 0.95889,0.08434 1.429662,0.02549 0.624778,-0.0781 1.110715,0.273805 1.316383,0.691394 0.102831,0.208793 0.148171,0.435983 0.119241,0.658088 -0.02893,0.222105 -0.148092,0.45342 -0.367386,0.580171 -0.05853,0.03371 -0.265846,0.207107 -0.497935,0.421867 -0.23209,0.214761 -0.510145,0.477308 -0.798917,0.72655 -0.288771,0.249242 -0.586491,0.484382 -0.884647,0.652332 -0.298156,0.167946 -0.614641,0.296345 -0.947352,0.185441 -0.93154,-0.310514 -1.425309,-1.338087 -1.804655,-2.121056 -0.177752,-0.36688 -0.516219,-0.955766 -0.894515,-1.398413 -0.189148,-0.221323 -0.389896,-0.406036 -0.566397,-0.509654 -0.175725,-0.10317 -0.307186,-0.124758 -0.423923,-0.0919 -0.0029,0.0126 -0.01023,0.06991 0.01172,0.171872 0.04638,0.215463 0.202058,0.565648 0.404392,0.947352 0.404667,0.763407 0.984658,1.655605 1.228597,2.353371 0.178037,0.509261 0.62694,0.827637 1.169798,1.003888 0.542856,0.176252 1.164345,0.186703 1.533279,0.107523 0.13526,-0.02908 0.250794,-0.04663 0.394524,-0.0021 0.07187,0.02228 0.153705,0.06964 0.210933,0.146585 0.05723,0.07695 0.0799,0.170653 0.07997,0.244033 1.48e-4,0.146769 -0.04976,0.237375 -0.103411,0.330175 -0.05365,0.0928 -0.121275,0.184219 -0.199215,0.277339 -0.311771,0.372465 -0.800529,0.7954 -1.20701,1.066387 -0.101374,0.06759 -0.264626,0.27697 -0.416111,0.578115 -0.151483,0.301145 -0.300349,0.686068 -0.447154,1.095581 -0.293613,0.819024 -0.569348,1.726785 -0.912196,2.343914 -0.301365,0.542455 -0.806969,1.599434 -1.42185,2.710889 -0.614882,1.111455 -1.337643,2.283176 -2.124962,3.103563 -0.795332,0.828733 -1.555113,1.069024 -2.142643,0.85936 -0.587531,-0.209665 -0.892665,-0.807347 -0.892665,-1.386695 0,-0.813966 -0.516213,-1.524111 -1.226541,-2.853567 -0.341177,-0.638552 -0.703134,-1.156397 -0.935427,-1.742157 -0.232291,-0.585757 -0.311523,-1.245308 -0.07627,-2.0528 0.221131,-0.759034 0.406094,-1.27549 0.476554,-1.677807 0.07046,-0.402319 0.05009,-0.684196 -0.146379,-1.10545 -0.169131,-0.362644 -0.515843,-0.582651 -0.951258,-0.634651 -0.435415,-0.052 -0.947784,0.07842 -1.384638,0.433586 -0.583063,0.47403 -1.635946,0.878899 -2.742344,1.197141 -1.1063986,0.31829 -2.2321294,0.530942 -2.9686946,0.496132 C 7.5624034,23.206899 7.2137257,22.995519 6.992178,22.691323 6.7706303,22.387125 6.6513854,22.005072 6.5762726,21.580117 6.4260458,20.73021 6.4627258,19.688274 6.4942428,18.718737 c 0.037158,-1.143061 0.9748852,-2.05029 1.9452778,-2.72857 0.9703929,-0.678278 2.0104854,-1.132257 2.4432134,-1.294796 0.747725,-0.280511 1.092612,-0.704406 1.818429,-1.166097 0.282271,-0.179556 0.618374,-0.19131 1.002039,-0.16591 0.383663,0.0254 0.817825,0.10817 1.263546,0.220596 0.891443,0.224853 1.820553,0.570177 2.41402,0.867172 0.451356,0.225883 1.321534,0.279039 2.23454,0.158303 0.913007,-0.120734 1.876197,-0.398292 2.554642,-0.722643 0.305208,-0.145914 0.451072,-0.317454 0.519522,-0.490328 0.06846,-0.172876 0.063,-0.365456 -0.01377,-0.574209 -0.153544,-0.417508 -0.615911,-0.84871 -1.134643,-0.978601 -0.340896,-0.08536 -0.579221,-0.164941 -0.734362,-0.400281 -0.07757,-0.11767 -0.100905,-0.283386 -0.0664,-0.410149 0.03451,-0.12676 0.10168,-0.218677 0.175778,-0.300775 0.296381,-0.328391 0.792908,-0.585518 1.285134,-0.8926655 0.195688,-0.1221094 0.277704,-0.2474837 0.312494,-0.3729374 0.03479,-0.1254539 0.01972,-0.263038 -0.04112,-0.3984304 -0.121685,-0.2707853 -0.425059,-0.4870244 -0.708869,-0.4668914 -0.358233,0.025412 -0.814458,0.2054839 -1.164042,0.4864223 -0.349583,0.2809384 -0.58731,0.6462339 -0.61142,1.0351374 -0.03689,0.594943 -0.309774,1.023129 -0.704963,1.164042 -0.197595,0.07046 -0.482132,0.02284 -0.627045,-0.171872 -0.14491,-0.194715 -0.151278,-0.433826 -0.09375,-0.701262 0.09144,-0.4250973 0.110235,-0.717963 0.05469,-0.8573038 C 18.561634,9.4173476 18.444599,9.3075438 17.988288,9.222607 17.831094,9.193318 17.528563,9.231807 17.179709,9.3554171 16.830856,9.4790292 16.432521,9.6785543 16.048767,9.9218133 15.281262,10.408332 14.570101,11.0918 14.33786,11.607433 c -0.297799,0.661184 -0.711647,1.258499 -1.277321,1.60544 -0.565675,0.346941 -1.300759,0.394187 -2.03512,-0.02529 C 10.406665,12.83415 9.6082016,12.56341 9.0879466,12.222554 8.9578828,12.13734 8.8415747,12.046388 8.7481089,11.925684 8.6546428,11.804981 8.5853682,11.637207 8.6035802,11.460848 8.6400035,11.108131 8.917169,10.883257 9.3397924,10.646513 10.155106,10.189791 10.948123,9.9437671 11.349625,9.7363725 c 0.166659,-0.086089 0.229952,-0.1606074 0.244239,-0.1722831 -0.0016,-0.00404 -0.0023,-0.00678 -0.0099,-0.021176 C 11.562884,9.5026664 11.505774,9.4267675 11.40428,9.3319797 11.145995,9.0907671 10.961613,8.8441038 10.857414,8.5879551 10.753214,8.3318063 10.734602,8.0535284 10.837884,7.8106252 10.941166,7.5677218 11.15277,7.3843186 11.413943,7.2715723 c 0.261172,-0.1127465 0.579001,-0.1661154 0.953314,-0.1661155 1.318387,0 3.894166,-0.3711466 6.271475,-0.6835816 1.15385,-0.1516432 1.725506,-0.4576712 1.857286,-0.6640506 0.06589,-0.1031897 0.07547,-0.182963 0.01953,-0.3379874 C 20.459644,5.2648129 20.316432,5.0547786 20.0859,4.8242478 19.904537,4.6428831 19.792655,4.6336044 19.562472,4.6971942 c -0.230183,0.06359 -0.543201,0.2508031 -0.898421,0.4864222 -0.710442,0.4712387 -1.604081,1.13321 -2.724664,1.167948 -0.536854,0.016642 -0.949611,-0.056871 -1.255734,-0.2656203 -0.306124,-0.2087489 -0.452298,-0.5746205 -0.421868,-0.9296709 0.06085,-0.710101 0.614883,-1.4697335 1.453099,-2.2754529 0.899691,-0.8648095 2.064851,-0.9499293 3.175725,-0.7538928 1.110874,0.1960366 2.215647,0.6559531 3.128851,0.9296709 0.482402,0.1448044 0.874867,0.025416 1.324195,-0.2226523 0.449326,-0.2480686 0.918991,-0.6291938 1.462967,-0.9315212 z"
         transform="matrix(2.5135865,0,0,2.5135865,22.488778,22.488778)" /></g><path
       id="path36084"
       style="color:#000000;display:inline;mix-blend-mode:normal;fill:#ffffff;filter:url(#filter37337);opacity:1;stroke:#160d1d;fill-opacity:1;stroke-width:2.11666672;stroke-dasharray:none;stroke-opacity:1"
       d="m 67.734369,16.326136 c -1.270395,0 -2.340238,0.131573 -3.353801,0.750858 -0.951249,0.581211 -1.405524,1.510335 -1.588534,1.910995 -0.06231,0.01503 -0.215374,0.04708 -0.540535,0.08372 -0.323013,0.03639 -0.48091,0.03995 -0.54622,0.03927 -0.267116,-0.349408 -0.917506,-1.15474 -1.975073,-1.509986 -1.125954,-0.378218 -2.196389,-0.268743 -3.434933,0.01395 -1.238542,0.282689 -2.250756,0.6502 -3.101103,1.479496 -0.799422,0.779632 -1.039241,1.788025 -1.128096,2.217953 -0.05751,0.02815 -0.19946,0.09294 -0.505396,0.199988 -0.312328,0.109288 -0.463097,0.145924 -0.524515,0.159163 -0.338023,-0.281106 -1.150101,-0.919924 -2.260328,-1.030945 -1.181887,-0.118187 -2.203012,0.224976 -3.347599,0.77618 -1.144585,0.551204 -2.04785,1.134446 -2.692342,2.13217 -0.604292,0.935492 -0.611446,1.968021 -0.602547,2.409155 -0.04922,0.0397 -0.172935,0.134663 -0.45372,0.311092 -0.278598,0.175055 -0.416624,0.245419 -0.473356,0.272335 -0.391719,-0.198693 -1.327348,-0.640658 -2.434993,-0.501778 -1.178552,0.14777 -2.097018,0.709122 -3.090251,1.5012 -0.993234,0.792078 -1.744972,1.562267 -2.15129,2.67839 -0.381731,1.048582 -0.158293,2.059752 -0.05168,2.486153 -0.038,0.04844 -0.136013,0.167014 -0.371554,0.402559 -0.227563,0.227564 -0.350178,0.329841 -0.402559,0.371037 -0.427361,-0.106785 -1.435645,-0.332211 -2.483053,0.04909 -1.116128,0.406312 -1.886312,1.161156 -2.678389,2.15439 -0.792079,0.993235 -1.356531,1.911698 -1.504301,3.090251 -0.138975,1.1084 0.304317,2.044788 0.502811,2.436027 -0.0271,0.0583 -0.09777,0.197272 -0.270267,0.471806 -0.173154,0.275573 -0.267933,0.399164 -0.308509,0.448551 -0.438807,-0.009 -1.473612,-8.63e-4 -2.411739,0.605131 -0.997724,0.644492 -1.580966,1.550341 -2.13217,2.694927 -0.551203,1.144586 -0.896951,2.163128 -0.778763,3.345015 0.111193,1.111941 0.753118,1.929074 1.033528,2.266012 -0.01346,0.05989 -0.05092,0.208006 -0.15968,0.518831 -0.109166,0.311978 -0.174668,0.454413 -0.203088,0.511597 -0.431674,0.08932 -1.439454,0.324165 -2.217436,1.121895 -0.829296,0.850347 -1.193706,1.862559 -1.476396,3.101103 -0.282689,1.238542 -0.392165,2.308977 -0.01395,3.434932 0.355246,1.057568 1.160578,1.707958 1.509985,1.975074 6.72e-4,0.06531 -0.0029,0.223207 -0.03927,0.54622 -0.03636,0.322697 -0.06803,0.477291 -0.0832,0.540535 -0.399304,0.182227 -1.329265,0.638688 -1.911511,1.591634 -0.619285,1.013563 -0.750859,2.080307 -0.750859,3.3507 0,1.270395 0.131575,2.339721 0.750859,3.353284 0.582222,0.952907 1.512175,1.406862 1.911511,1.58905 0.01517,0.06325 0.04684,0.217839 0.0832,0.540536 0.03639,0.323013 0.03995,0.48091 0.03927,0.54622 -0.349408,0.267116 -1.154739,0.917507 -1.509985,1.975073 -0.378219,1.125955 -0.268744,2.196389 0.01395,3.434933 0.28269,1.238542 0.647099,2.250756 1.476396,3.101102 0.77771,0.797452 1.783368,1.032921 2.215369,1.122412 0.03073,0.06049 0.09857,0.20649 0.205155,0.51108 0.107885,0.308317 0.145971,0.459218 0.15968,0.521416 -0.280439,0.336923 -0.922342,1.151552 -1.033528,2.263427 -0.118188,1.181888 0.22756,2.203013 0.778763,3.3476 0.551204,1.144585 1.134446,2.047849 2.13217,2.692342 0.937269,0.605439 1.970686,0.614131 2.410189,0.605131 0.03929,0.04823 0.133686,0.170439 0.310059,0.451135 0.1725,0.274534 0.243168,0.414029 0.270267,0.472323 -0.198805,0.392135 -0.641643,1.328766 -0.502811,2.436027 0.14777,1.178552 0.712222,2.096501 1.504301,3.089734 0.792077,0.993233 1.562267,1.745483 2.678389,2.151803 1.047958,0.3815 2.05827,0.15837 2.48512,0.0517 0.04807,0.0383 0.165943,0.137 0.400492,0.37155 0.235613,0.23561 0.333606,0.35287 0.371554,0.40049 -0.106681,0.42685 -0.329822,1.43716 0.05168,2.48512 0.406318,1.11612 1.158054,1.88631 2.15129,2.67839 0.993233,0.79208 1.911699,1.35395 3.090251,1.50172 1.105997,0.13868 2.039007,-0.30264 2.431893,-0.50178 h 5.17e-4 c 0.06066,0.0284 0.2035,0.10063 0.475939,0.27182 0.280697,0.17637 0.402909,0.27076 0.451136,0.31006 -0.009,0.4395 -2.46e-4,1.47291 0.605131,2.41019 0.644491,0.99772 1.547757,1.58096 2.692342,2.13217 1.144587,0.5512 2.165712,0.89695 3.347599,0.77876 1.110263,-0.11102 1.922328,-0.75238 2.260328,-1.03353 0.06142,0.0132 0.212185,0.0504 0.524515,0.15968 0.305936,0.10705 0.447885,0.17132 0.505396,0.19947 0.08886,0.42993 0.328674,1.43832 1.128096,2.21795 0.850347,0.8293 1.862561,1.19681 3.101103,1.4795 1.238544,0.28269 2.308979,0.39212 3.434933,0.0139 1.057567,-0.35524 1.707957,-1.16057 1.975073,-1.50998 0.06531,-6.7e-4 0.223208,0.003 0.54622,0.0393 0.325161,0.0366 0.478226,0.0687 0.540535,0.0837 0.18301,0.40066 0.637285,1.32978 1.588534,1.91099 1.013563,0.61929 2.083406,0.75086 3.353801,0.75086 1.270393,0 2.337136,-0.13157 3.350699,-0.75086 0.951244,-0.5812 1.405522,-1.51033 1.588534,-1.91099 0.0615,-0.0148 0.214317,-0.0466 0.543636,-0.0837 0.32511,-0.0366 0.481712,-0.04 0.54622,-0.0393 0.267092,0.34944 0.914462,1.15476 1.971973,1.50998 1.125953,0.37822 2.198974,0.26879 3.437516,-0.0139 1.238544,-0.28269 2.251273,-0.6502 3.10162,-1.4795 0.798923,-0.77914 1.036066,-1.78653 1.124996,-2.21691 0.05559,-0.0271 0.195441,-0.091 0.508496,-0.20051 0.308317,-0.10788 0.459218,-0.14597 0.521415,-0.15968 0.337994,0.28115 1.150055,0.9225 2.260327,1.03353 1.181887,0.11818 2.203529,-0.22756 3.348116,-0.77876 1.144586,-0.55121 2.050435,-1.13445 2.694926,-2.13217 0.604435,-0.93572 0.608412,-1.96618 0.599447,-2.40709 0.05231,-0.0429 0.180574,-0.14121 0.454236,-0.31316 0.276442,-0.1737 0.417337,-0.24481 0.476456,-0.27234 0.392805,0.19911 1.32525,0.64099 2.431377,0.5023 1.178552,-0.14777 2.097016,-0.70964 3.09025,-1.50172 0.993231,-0.79208 1.744971,-1.56227 2.151291,-2.67839 0.38161,-1.04827 0.15885,-2.05901 0.0522,-2.48563 0.0387,-0.0485 0.13754,-0.16648 0.37104,-0.39998 0.23361,-0.23361 0.3528,-0.33284 0.40204,-0.37155 0.42618,0.10658 1.43778,0.33016 2.48667,-0.0517 1.11613,-0.40632 1.88321,-1.15857 2.67529,-2.151803 0.79208,-0.993233 1.35653,-1.911182 1.5043,-3.089734 0.13874,-1.106508 -0.30277,-2.04238 -0.50178,-2.434994 0.0269,-0.05673 0.0973,-0.194757 0.27234,-0.473356 0.17721,-0.282026 0.27034,-0.403443 0.30851,-0.451135 0.4402,0.009 1.47526,-1.58e-4 2.41174,-0.605131 0.99772,-0.644493 1.58096,-1.547757 2.13217,-2.692342 0.5512,-1.144587 0.89385,-2.165714 0.77566,-3.3476 -0.11102,-1.110226 -0.74932,-1.922821 -1.03043,-2.260844 0.0142,-0.06536 0.053,-0.220527 0.15916,-0.523999 0.1067,-0.304914 0.17416,-0.451251 0.20413,-0.511596 0.43188,-0.0894 1.43612,-0.324456 2.21381,-1.121896 0.8293,-0.850346 1.19681,-1.86256 1.4795,-3.101102 0.28269,-1.238544 0.38909,-2.308978 0.0109,-3.434933 -0.35539,-1.058009 -1.15939,-1.70988 -1.50843,-1.976624 2e-5,-0.06056 0.003,-0.212877 0.0403,-0.544669 0.0369,-0.327199 0.0685,-0.479535 0.0827,-0.541052 0.40014,-0.182633 1.32793,-0.636787 1.90944,-1.588534 0.61929,-1.013563 0.75344,-2.082889 0.75344,-3.353284 0,-1.270393 -0.13416,-2.337137 -0.75344,-3.3507 -0.58154,-0.951787 -1.50933,-1.40844 -1.90944,-1.591117 -0.0142,-0.06152 -0.0458,-0.213855 -0.0827,-0.541052 -0.0374,-0.33179 -0.0403,-0.484107 -0.0403,-0.54467 0.34904,-0.266743 1.15304,-0.918613 1.50843,-1.976624 0.37822,-1.125955 0.27182,-2.19639 -0.0109,-3.434932 -0.28269,-1.238544 -0.6502,-2.250756 -1.4795,-3.101103 -0.77914,-0.798924 -1.78652,-1.036066 -2.21691,-1.124996 -0.0271,-0.05559 -0.0915,-0.195442 -0.20103,-0.508496 -0.10619,-0.303473 -0.14493,-0.458639 -0.15916,-0.523999 0.28157,-0.338761 0.91951,-1.151666 1.03043,-2.260844 0.11818,-1.181887 -0.22446,-2.200429 -0.77566,-3.345015 -0.5512,-1.144586 -1.13445,-2.050435 -2.13217,-2.694927 -0.93791,-0.605849 -1.97529,-0.614165 -2.41433,-0.605131 -0.0406,-0.04939 -0.13587,-0.172979 -0.30902,-0.448551 -0.1725,-0.274534 -0.24265,-0.413511 -0.26975,-0.471806 0.19849,-0.391239 0.64127,-1.327627 0.50229,-2.436027 -0.14777,-1.178553 -0.71222,-2.097016 -1.5043,-3.090251 -0.79208,-0.993234 -1.55917,-1.748072 -2.67529,-2.15439 -1.04772,-0.381418 -2.05746,-0.155838 -2.4846,-0.04909 -0.0531,-0.04118 -0.17643,-0.143359 -0.40411,-0.371037 -0.23348,-0.233476 -0.33227,-0.352739 -0.37104,-0.402042 0.10658,-0.42618 0.33016,-1.437778 -0.0517,-2.48667 -0.40632,-1.116123 -1.15858,-1.886312 -2.151811,-2.67839 -0.993234,-0.792078 -1.911698,-1.35343 -3.09025,-1.5012 -1.10734,-0.138842 -2.042563,0.303005 -2.434477,0.501778 -0.05673,-0.02692 -0.194757,-0.09728 -0.473356,-0.272335 -0.273663,-0.171954 -0.401928,-0.270239 -0.454236,-0.313159 0.0088,-0.441828 0.0043,-1.47233 -0.599447,-2.407088 -0.644492,-0.997722 -1.55034,-1.580967 -2.694926,-2.13217 -1.144587,-0.551204 -2.166229,-0.894367 -3.348116,-0.77618 -1.110238,0.111023 -1.922311,0.749843 -2.260327,1.030945 -0.0622,-0.01371 -0.213095,-0.05128 -0.521415,-0.159163 -0.313058,-0.109544 -0.45291,-0.173917 -0.508496,-0.201022 -0.08893,-0.43039 -0.326073,-1.437774 -1.124996,-2.216919 -0.850347,-0.829296 -1.862559,-1.196807 -3.101103,-1.479496 -1.238543,-0.282689 -2.31208,-0.392165 -3.438033,-0.01395 -1.057511,0.355228 -1.704881,1.160545 -1.971973,1.509986 -0.06451,7.25e-4 -0.22111,-0.0026 -0.54622,-0.03927 -0.329318,-0.03711 -0.482133,-0.06891 -0.543636,-0.08372 -0.183012,-0.400664 -0.63729,-1.329788 -1.588534,-1.910995 -1.013563,-0.619284 -2.080306,-0.750858 -3.350699,-0.750858 z m -0.0021,7.736479 c 1.463466,-1e-6 2.909905,0.0732 4.33617,0.213423 0.180043,0.02923 0.363269,0.05574 0.551904,0.077 0.199609,0.02249 0.394293,0.03805 0.586528,0.04961 2.861978,0.35705 5.636725,0.991597 8.298202,1.873788 0.208263,0.0878 0.421706,0.172162 0.645955,0.250631 0.232475,0.08135 0.460315,0.150737 0.685746,0.213423 2.640967,0.97182 5.16215,2.190144 7.534424,3.629236 0.187845,0.135687 0.381677,0.269252 0.588078,0.398942 0.194458,0.122186 0.38724,0.232879 0.579293,0.337964 2.380036,1.548846 4.59872,3.323581 6.626986,5.293734 0.138669,0.155504 0.282446,0.310351 0.436666,0.464571 0.15422,0.15422 0.309067,0.297997 0.464571,0.436666 1.969638,2.027686 3.744158,4.245653 5.292698,6.624919 0.1054,0.192724 0.21638,0.3857 0.339,0.580843 0.13001,0.206909 0.26358,0.401884 0.39946,0.590145 1.43834,2.371169 2.65673,4.890665 3.6282,7.53029 0.0628,0.226251 0.13229,0.454467 0.21394,0.687813 0.0787,0.224789 0.16311,0.439297 0.25115,0.648023 0.88224,2.662082 1.51699,5.437586 1.87379,8.300268 0.0115,0.191059 0.0267,0.384569 0.0491,0.58291 0.0213,0.188813 0.0477,0.371802 0.077,0.551905 0.14011,1.425587 0.21291,2.870822 0.21291,4.333585 0,1.464879 -0.0729,2.912702 -0.21343,4.340304 -0.029,0.179208 -0.0553,0.361087 -0.0765,0.548804 -0.0221,0.196542 -0.0375,0.388353 -0.0491,0.577742 -0.35744,2.868937 -0.99334,5.650374 -1.87844,8.317839 -0.0862,0.205101 -0.16932,0.415058 -0.2465,0.63562 -0.08,0.228739 -0.14833,0.452985 -0.21032,0.674894 -0.97422,2.649157 -2.19682,5.17781 -3.64112,7.556645 -6.4e-4,0.0011 -10e-4,0.002 -0.002,0.0031 -0.13181,0.183426 -0.26178,0.372597 -0.38809,0.573608 -0.11872,0.188951 -0.22658,0.376231 -0.32918,0.562757 -1.55587,2.392795 -3.34019,4.62264 -5.321639,6.660058 -0.149055,0.133742 -0.297548,0.272227 -0.44545,0.42013 -0.148799,0.148798 -0.287857,0.297671 -0.422197,0.447518 -2.030835,1.974577 -4.2529,3.753187 -6.636804,5.305097 -0.193599,0.10579 -0.387907,0.21737 -0.583944,0.34055 -0.207846,0.1306 -0.403186,0.26484 -0.592212,0.40153 -2.368047,1.43629 -4.884187,2.65332 -7.519954,3.62407 -0.228753,0.0633 -0.46008,0.13342 -0.696082,0.216 -0.22705,0.0795 -0.443048,0.16506 -0.653707,0.25425 -2.66791,0.88384 -5.449642,1.51874 -8.318872,1.87482 -0.183019,0.0116 -0.368419,0.0267 -0.558106,0.0481 -0.18404,0.0207 -0.363124,0.0456 -0.538985,0.0739 -1.430446,0.14108 -2.881206,0.21446 -4.349089,0.21446 -1.467691,0 -2.917802,-0.0729 -4.348055,-0.21394 -0.175889,-0.0283 -0.354396,-0.0537 -0.538468,-0.0744 -0.190227,-0.0214 -0.376135,-0.0364 -0.559656,-0.0481 -2.868294,-0.35601 -5.649227,-0.99086 -8.316288,-1.8743 -0.21112,-0.0894 -0.427668,-0.17513 -0.655257,-0.25477 -0.236707,-0.0828 -0.468733,-0.15306 -0.698149,-0.21652 -2.635127,-0.97065 -5.150408,-2.18754 -7.517888,-3.62355 -0.189026,-0.13669 -0.384365,-0.27093 -0.592212,-0.40153 -0.197122,-0.12386 -0.392529,-0.23582 -0.587044,-0.3421 -2.382383,-1.55124 -4.60299,-3.32907 -6.63267,-5.302514 -0.134733,-0.15019 -0.274094,-0.299416 -0.42323,-0.448551 -0.148292,-0.148292 -0.297033,-0.287109 -0.446485,-0.421163 -1.97531,-2.031373 -3.75428,-4.254169 -5.306652,-6.638871 -0.105532,-0.193204 -0.217014,-0.38713 -0.340031,-0.582911 -0.131119,-0.208674 -0.265815,-0.405093 -0.403077,-0.594795 -1.435729,-2.367436 -2.652055,-4.882881 -3.622518,-7.517888 -0.0633,-0.228597 -0.133484,-0.459728 -0.216007,-0.695565 -0.07945,-0.22705 -0.165058,-0.443048 -0.254248,-0.653707 -0.883396,-2.666456 -1.518039,-5.446632 -1.874304,-8.314221 -0.01164,-0.1847 -0.027,-0.371779 -0.04858,-0.563273 -0.0207,-0.183685 -0.04565,-0.361898 -0.0739,-0.537435 -0.14123,-1.431276 -0.214974,-2.882914 -0.214973,-4.351673 0,-1.466644 0.07363,-2.915693 0.214457,-4.344954 0.02846,-0.176438 0.05359,-0.355755 0.07441,-0.540536 0.02178,-0.193293 0.03693,-0.382068 0.04858,-0.56844 0.355621,-2.861281 0.988627,-5.635626 1.869136,-8.296652 0.09109,-0.21432 0.178466,-0.434767 0.259416,-0.666109 0.08413,-0.240444 0.155495,-0.475552 0.219625,-0.708484 0.967756,-2.625619 2.179727,-5.132176 3.609599,-7.492049 0.140502,-0.1935 0.278325,-0.394371 0.412378,-0.607715 0.126905,-0.201969 0.241579,-0.401592 0.349849,-0.600997 1.545037,-2.371177 3.31421,-4.582097 5.277714,-6.603731 0.155907,-0.138983 0.31099,-0.283085 0.465605,-0.4377 0.154649,-0.154649 0.298558,-0.310179 0.437699,-0.466121 2.026974,-1.968855 4.244527,-3.742045 6.622852,-5.290117 0.193041,-0.105603 0.386778,-0.217118 0.582393,-0.340031 0.206401,-0.12969 0.400233,-0.263255 0.588078,-0.398942 2.371707,-1.438814 4.892031,-2.656991 7.532357,-3.628719 0.226096,-0.06282 0.454633,-0.132347 0.687814,-0.21394 0.224856,-0.07868 0.438723,-0.163594 0.647505,-0.251665 2.660582,-0.881764 5.434631,-1.515789 8.295618,-1.872754 0.192735,-0.01155 0.387929,-0.02706 0.588078,-0.04961 0.188813,-0.02127 0.3717,-0.04773 0.551904,-0.077 1.42592,-0.14016 2.871504,-0.213423 4.334619,-0.213423 z" /><path
       sodipodi:type="star"
       style="display:none;opacity:1;fill:#ff0000;fill-opacity:1;stroke:none;stroke-width:3.70417;stroke-dasharray:none;stroke-opacity:1"
       id="path51210"
       inkscape:flatsided="true"
       sodipodi:sides="3"
       sodipodi:cx="68.815796"
       sodipodi:cy="19.296211"
       sodipodi:r1="51.655933"
       sodipodi:r2="25.827969"
       sodipodi:arg1="2.6179939"
       sodipodi:arg2="3.6651914"
       inkscape:rounded="-7.979728e-17"
       inkscape:randomized="0"
       d="M 24.080445,45.124177 68.815797,-32.359722 113.55115,45.124179 Z"
       transform="rotate(45,8.8309241,40.88397)"
       inkscape:transform-center-x="6.6847685"
       inkscape:transform-center-y="6.6847701" /><path
       id="path51082"
       style="color:#000000;font-size:50.8px;font-family:Comfortaa;-inkscape-font-specification:Comfortaa;text-align:center;text-anchor:middle;fill:#ffffff;stroke:#160d1d;stroke-width:2.11667;stroke-dasharray:none;stroke-opacity:1"
       d="m 87.242835,89.724683 c -0.595363,0.254176 -1.114671,0.65996 -1.519425,1.136962 l -0.04703,0.05433 -13.608477,18.832215 -0.05103,0.0898 c -0.615764,1.08496 -0.89476,2.47639 -0.374198,3.69573 0.527167,1.2348 1.848803,2.17423 3.16877,2.32756 l 22.76774,3.16402 c 0.658342,0.10292 1.359082,0.002 1.954432,-0.25227 0.888703,-0.37941 1.652083,-1.13513 2.048763,-2.0108 0.4236,-0.93509 0.41673,-2.1089 0.0195,-3.0392 -0.49856,-1.16779 -1.687013,-2.05559 -2.907503,-2.29863 l -0.0582,-0.011 -0.0561,-0.008 -16.789305,-2.2613 9.993176,-13.706144 0.01407,-0.02157 c 0.735629,-1.066137 0.874782,-2.607421 0.368699,-3.79284 -0.379412,-0.888707 -1.189369,-1.690713 -2.129386,-2.017236 -0.897806,-0.31185 -1.941677,-0.245938 -2.794895,0.118323 z" /><path
       id="path51073"
       style="color:#000000;font-size:50.8px;font-family:Comfortaa;-inkscape-font-specification:Comfortaa;text-align:center;text-anchor:middle;fill:#ffffff;stroke:#160d1d;stroke-width:2.11667;stroke-dasharray:none;stroke-opacity:1"
       d="m 8.2164016,73.410925 c -0.037437,0.926966 0.2732644,1.92676 0.8836807,2.655239 0.6391284,0.762739 1.6770687,1.23451 2.6425817,1.273508 1.287873,0.05202 2.679216,-0.625544 3.414525,-1.691889 l 0.01268,-0.02071 9.264649,-14.207848 8.102919,14.938811 0.03108,0.04989 c 0.660691,1.054565 1.912743,1.850169 3.181471,1.901413 1.010691,0.04082 2.110373,-0.369178 2.834019,-1.097298 0.677662,-0.681856 1.115021,-1.663795 1.154019,-2.629308 0.02506,-0.620396 -0.09585,-1.313272 -0.460873,-1.919273 l -11.062517,-20.195039 0.01812,0.03797 c -0.612191,-1.179426 -1.95982,-2.08067 -3.30134,-2.134852 -1.32473,-0.05351 -2.526383,0.703093 -3.321857,1.664089 l -0.06364,0.0776 -0.05612,0.08359 -12.7141762,19.327259 -0.035654,0.06268 C 8.4378467,72.134539 8.24247,72.764105 8.2163439,73.410921 Z" /><path
       id="path51082-2"
       style="color:#000000;font-size:50.8px;font-family:Comfortaa;-inkscape-font-specification:Comfortaa;text-align:center;text-anchor:middle;fill:#ffffff;stroke:#160d1d;stroke-width:2.11667;stroke-dasharray:none;stroke-opacity:1"
       d="m 72.870723,36.643656 c 0.51054,0.398001 1.116955,0.656077 1.730255,0.779447 l 0.07032,0.01483 23.065731,2.795476 0.103226,0.0013 c 1.247445,0.01383 2.600115,-0.415374 3.415255,-1.461 0.82547,-1.058881 1.008,-2.670075 0.5034,-3.89939 L 93.509848,13.418876 c -0.228525,-0.625918 -0.656025,-1.190251 -1.166563,-1.588254 -0.762097,-0.594098 -1.792845,-0.896416 -2.75112,-0.819789 -1.023298,0.08183 -2.04718,0.655879 -2.669084,1.453633 -0.780682,1.001425 -0.982482,2.471092 -0.604536,3.656752 l 0.01838,0.05629 0.02023,0.05307 6.14592,15.78677 -16.830327,-2.112345 -0.02571,-0.0022 c -1.28897,-0.127807 -2.705107,0.496271 -3.497571,1.512803 -0.594104,0.762093 -0.903986,1.859007 -0.734824,2.839641 0.161566,0.936586 0.724403,1.818194 1.456065,2.388572 z" /></g></svg>
