<svg height="512" viewBox="0 0 135.46667 135.46667" width="512" xmlns="http://www.w3.org/2000/svg" xmlns:xlink="http://www.w3.org/1999/xlink"><filter id="a" color-interpolation-filters="sRGB" height="1.640468" width="1.640468" x="-.320234" y="-.320234"><feFlood flood-opacity=".898039" result="flood"/><feComposite in="flood" in2="SourceGraphic" operator="out" result="composite1"/><feGaussianBlur in="composite1" result="blur" stdDeviation="5"/><feOffset dx="-0" dy="0" result="offset"/><feComposite in="offset" in2="SourceGraphic" operator="in" result="composite2"/></filter><filter id="b" color-interpolation-filters="sRGB" height="1.020598" width="1.020598" x="-.010299" y="-.010299"><feFlood flood-opacity=".898039" result="flood"/><feComposite in="flood" in2="SourceGraphic" operator="in" result="composite1"/><feGaussianBlur in="composite1" result="blur" stdDeviation=".00023253779"/><feOffset dx="-0" dy="0" result="offset"/><feComposite in="SourceGraphic" in2="offset" operator="over" result="composite2"/></filter><path d="m-0-0h135.46667v135.46667h-135.46667z" fill="#160d1d"/><g transform="matrix(2.5135865 0 0 2.5135865 22.488778 22.488778)"><path d="m18-.73650856c-10.3394272 0-18.73650856 8.39708136-18.73650856 18.73650856 0 10.339428 8.39708136 18.736509 18.73650856 18.736509 10.339428 0 18.736509-8.397081 18.736509-18.736509 0-10.3394272-8.397081-18.73650856-18.736509-18.73650856zm0 1.47267041c9.542995.00000001 17.263838 7.72084275 17.263838 17.26383815 0 9.542995-7.720843 17.263838-17.263838 17.263838-9.5429954 0-17.26383815-7.720843-17.26383815-17.263838.00000001-9.5429954 7.72084275-17.26383815 17.26383815-17.26383815z" fill="#fff" stroke-width="1.00001"/><path d="m35.340749 18a17.340749 17.340749 0 0 1 -17.340749 17.340749 17.340749 17.340749 0 0 1 -17.340749-17.340749 17.340749 17.340749 0 0 1 17.340749-17.340749 17.340749 17.340749 0 0 1 17.340749 17.340749z" fill="#678dff" stroke-width="1.41969"/><path d="m24.957941 2.1729492c-1.022.568-1.872 1.528-3.028 1.181-1.875-.562-4.375-1.812-6-.25s-2 3 0 2.938 3.375-2.438 4.375-1.438.749 1.813-1.625 2.125-4.938.688-6.313.688-1.688.812-.75 1.688-.563.9369998-2.1249999 1.8119998c-1.562.875.375 1.25 1.6879999 2 1.313.75 2.312-.188 2.875-1.438s2.981-2.7499998 3.99-2.5619998c1.01.188 1.01.688.822 1.5619998-.188.874.75.625.812-.375.062-.9999998 1.188-1.7499998 2.062-1.8119998s1.625 1.188.625 1.8119998c-1 .624-2 1.125-.75 1.438s2.125 1.938.688 2.625-3.937 1.125-5.062.562-3.688-1.375-4.375-.938-1.062.89-1.875 1.195c-.812.305-4.1249999 1.805-4.1879999 3.743s-.124 4.126 1.188 4.188 4.4999999-.812 5.4999999-1.625 2.375-.625 2.812.312.125 1.5-.312 3 .286 2.25.987 3.562 1.263 2.062 1.263 3 1 1.875 2.5.312 2.875-4.625 3.5-5.75 1.125-3.625 1.875-4.125 1.938-1.688 1.062-1.5-2.625-.062-3.062-1.312-2.312-3.625-1.438-3.875 1.875 1.39 2.25 2.164.875 1.711 1.625 1.961 2.375-1.673 2.875-1.961c.5-.289.125-1.476-.875-1.351s-2.312 0-2.312-.624 1.25-1.438 2.25-1.25 1.75.5 2.375 1.25 1.875 2.125 2.375 3 .875 1 1.125-.562c.166-1.038.387-1.609.59-2.222-1.013-5.8289998-4.82-10.6829998-9.999-13.1479998z" fill="#80d12e" stroke="#80d12e" stroke-width=".673672"/></g><g fill="#fff"><path d="m18-.73630278c-10.339307 0-18.73630278 8.39699578-18.73630278 18.73630278 0 10.339308 8.39699578 18.736303 18.73630278 18.736303 10.339308 0 18.736303-8.396995 18.736303-18.736303 0-10.339307-8.396995-18.73630278-18.736303-18.73630278zm6.947245 2.56060408.144528.068255c5.268499 2.5075979 9.141414 7.4452877 10.1719 13.3749677l.01172.07627-.02344.07422c-.206052.622216-.416098 1.160797-.578114 2.173892-.06452.4031-.137165.705494-.230465.937483s-.212061.433788-.459079.505748c-.123509.03599-.257783.01785-.359369-.02734s-.179456-.110551-.251846-.183591c-.144781-.146086-.26877-.333838-.400486-.56434-.458914-.803102-1.707848-2.192096-2.343708-2.955128-.5739-.688681-1.228877-.96283-2.195274-1.144511-.396931-.07462-.898771.05634-1.283283.283095-.384511.226753-.597645.557545-.597645.6622 0 .04719.0042.06422.08799.123148.08377.05893.24444.1244.445304.16591.401729.08303.95889.08434 1.429662.02549.624778-.0781 1.110715.273805 1.316383.691394.102831.208793.148171.435983.119241.658088s-.148092.45342-.367386.580171c-.05853.03371-.265846.207107-.497935.421867-.23209.214761-.510145.477308-.798917.72655-.288771.249242-.586491.484382-.884647.652332-.298156.167946-.614641.296345-.947352.185441-.93154-.310514-1.425309-1.338087-1.804655-2.121056-.177752-.36688-.516219-.955766-.894515-1.398413-.189148-.221323-.389896-.406036-.566397-.509654-.175725-.10317-.307186-.124758-.423923-.0919-.0029.0126-.01023.06991.01172.171872.04638.215463.202058.565648.404392.947352.404667.763407.984658 1.655605 1.228597 2.353371.178037.509261.62694.827637 1.169798 1.003888.542856.176252 1.164345.186703 1.533279.107523.13526-.02908.250794-.04663.394524-.0021.07187.02228.153705.06964.210933.146585.05723.07695.0799.170653.07997.244033.000148.146769-.04976.237375-.103411.330175-.05365.0928-.121275.184219-.199215.277339-.311771.372465-.800529.7954-1.20701 1.066387-.101374.06759-.264626.27697-.416111.578115-.151483.301145-.300349.686068-.447154 1.095581-.293613.819024-.569348 1.726785-.912196 2.343914-.301365.542455-.806969 1.599434-1.42185 2.710889-.614882 1.111455-1.337643 2.283176-2.124962 3.103563-.795332.828733-1.555113 1.069024-2.142643.85936-.587531-.209665-.892665-.807347-.892665-1.386695 0-.813966-.516213-1.524111-1.226541-2.853567-.341177-.638552-.703134-1.156397-.935427-1.742157-.232291-.585757-.311523-1.245308-.07627-2.0528.221131-.759034.406094-1.27549.476554-1.677807.07046-.402319.05009-.684196-.146379-1.10545-.169131-.362644-.515843-.582651-.951258-.634651s-.947784.07842-1.384638.433586c-.583063.47403-1.635946.878899-2.742344 1.197141-1.1063986.31829-2.2321294.530942-2.9686946.496132-.414132-.01957-.7628097-.23095-.9843574-.535146-.2215477-.304198-.3407926-.686251-.4159054-1.111206-.1502268-.849907-.1135468-1.891843-.0820298-2.86138.037158-1.143061.9748852-2.05029 1.9452778-2.72857.9703929-.678278 2.0104854-1.132257 2.4432134-1.294796.747725-.280511 1.092612-.704406 1.818429-1.166097.282271-.179556.618374-.19131 1.002039-.16591.383663.0254.817825.10817 1.263546.220596.891443.224853 1.820553.570177 2.41402.867172.451356.225883 1.321534.279039 2.23454.158303.913007-.120734 1.876197-.398292 2.554642-.722643.305208-.145914.451072-.317454.519522-.490328.06846-.172876.063-.365456-.01377-.574209-.153544-.417508-.615911-.84871-1.134643-.978601-.340896-.08536-.579221-.164941-.734362-.400281-.07757-.11767-.100905-.283386-.0664-.410149.03451-.12676.10168-.218677.175778-.300775.296381-.328391.792908-.585518 1.285134-.8926655.195688-.1221094.277704-.2474837.312494-.3729374.03479-.1254539.01972-.263038-.04112-.3984304-.121685-.2707853-.425059-.4870244-.708869-.4668914-.358233.025412-.814458.2054839-1.164042.4864223-.349583.2809384-.58731.6462339-.61142 1.0351374-.03689.594943-.309774 1.023129-.704963 1.164042-.197595.07046-.482132.02284-.627045-.171872-.14491-.194715-.151278-.433826-.09375-.701262.09144-.4250973.110235-.717963.05469-.8573038-.05555-.1393406-.172585-.2491444-.628896-.3340812-.157194-.029289-.459725.0092-.808579.1328101-.348853.1236121-.747188.3231372-1.130942.5663962-.767505.4865187-1.478666 1.1699867-1.710907 1.6856197-.297799.661184-.711647 1.258499-1.277321 1.60544-.565675.346941-1.300759.394187-2.03512-.02529-.618754-.353433-1.4172174-.624173-1.9374724-.965029-.1300638-.085214-.2463719-.176166-.3398377-.29687-.0934661-.120703-.1627407-.288477-.1445287-.464836.0364233-.352717.3135888-.577591.7362122-.814335.8153136-.456722 1.6083306-.7027459 2.0098326-.9101405.166659-.086089.229952-.1606074.244239-.1722831-.0016-.00404-.0023-.00678-.0099-.021176-.02108-.040247-.07819-.1161459-.179684-.2109337-.258285-.2412126-.442667-.4878759-.546866-.7440246-.1042-.2561488-.122812-.5344267-.01953-.7773299.103282-.2429034.314886-.4263066.576059-.5390529.261172-.1127465.579001-.1661154.953314-.1661155 1.318387 0 3.894166-.3711466 6.271475-.6835816 1.15385-.1516432 1.725506-.4576712 1.857286-.6640506.06589-.1031897.07547-.182963.01953-.3379874-.055904-.1550243-.199116-.3650586-.429648-.5955894-.181363-.1813647-.293245-.1906434-.523428-.1270536-.230183.06359-.543201.2508031-.898421.4864222-.710442.4712387-1.604081 1.13321-2.724664 1.167948-.536854.016642-.949611-.056871-1.255734-.2656203-.306124-.2087489-.452298-.5746205-.421868-.9296709.06085-.710101.614883-1.4697335 1.453099-2.2754529.899691-.8648095 2.064851-.9499293 3.175725-.7538928 1.110874.1960366 2.215647.6559531 3.128851.9296709.482402.1448044.874867.025416 1.324195-.2226523.449326-.2480686.918991-.6291938 1.462967-.9315212z" filter="url(#a)" opacity=".537883" stroke-width="1.47366" transform="matrix(2.5135865 0 0 2.5135865 22.488778 22.488778)"/><path d="m67.734369 16.326136c-1.270395 0-2.340238.131573-3.353801.750858-.951249.581211-1.405524 1.510335-1.588534 1.910995-.06231.01503-.215374.04708-.540535.08372-.323013.03639-.48091.03995-.54622.03927-.267116-.349408-.917506-1.15474-1.975073-1.509986-1.125954-.378218-2.196389-.268743-3.434933.01395-1.238542.282689-2.250756.6502-3.101103 1.479496-.799422.779632-1.039241 1.788025-1.128096 2.217953-.05751.02815-.19946.09294-.505396.199988-.312328.109288-.463097.145924-.524515.159163-.338023-.281106-1.150101-.919924-2.260328-1.030945-1.181887-.118187-2.203012.224976-3.347599.77618-1.144585.551204-2.04785 1.134446-2.692342 2.13217-.604292.935492-.611446 1.968021-.602547 2.409155-.04922.0397-.172935.134663-.45372.311092-.278598.175055-.416624.245419-.473356.272335-.391719-.198693-1.327348-.640658-2.434993-.501778-1.178552.14777-2.097018.709122-3.090251 1.5012-.993234.792078-1.744972 1.562267-2.15129 2.67839-.381731 1.048582-.158293 2.059752-.05168 2.486153-.038.04844-.136013.167014-.371554.402559-.227563.227564-.350178.329841-.402559.371037-.427361-.106785-1.435645-.332211-2.483053.04909-1.116128.406312-1.886312 1.161156-2.678389 2.15439-.792079.993235-1.356531 1.911698-1.504301 3.090251-.138975 1.1084.304317 2.044788.502811 2.436027-.0271.0583-.09777.197272-.270267.471806-.173154.275573-.267933.399164-.308509.448551-.438807-.009-1.473612-.000863-2.411739.605131-.997724.644492-1.580966 1.550341-2.13217 2.694927-.551203 1.144586-.896951 2.163128-.778763 3.345015.111193 1.111941.753118 1.929074 1.033528 2.266012-.01346.05989-.05092.208006-.15968.518831-.109166.311978-.174668.454413-.203088.511597-.431674.08932-1.439454.324165-2.217436 1.121895-.829296.850347-1.193706 1.862559-1.476396 3.101103-.282689 1.238542-.392165 2.308977-.01395 3.434932.355246 1.057568 1.160578 1.707958 1.509985 1.975074.000672.06531-.0029.223207-.03927.54622-.03636.322697-.06803.477291-.0832.540535-.399304.182227-1.329265.638688-1.911511 1.591634-.619285 1.013563-.750859 2.080307-.750859 3.3507 0 1.270395.131575 2.339721.750859 3.353284.582222.952907 1.512175 1.406862 1.911511 1.58905.01517.06325.04684.217839.0832.540536.03639.323013.03995.48091.03927.54622-.349408.267116-1.154739.917507-1.509985 1.975073-.378219 1.125955-.268744 2.196389.01395 3.434933.28269 1.238542.647099 2.250756 1.476396 3.101102.77771.797452 1.783368 1.032921 2.215369 1.122412.03073.06049.09857.20649.205155.51108.107885.308317.145971.459218.15968.521416-.280439.336923-.922342 1.151552-1.033528 2.263427-.118188 1.181888.22756 2.203013.778763 3.3476.551204 1.144585 1.134446 2.047849 2.13217 2.692342.937269.605439 1.970686.614131 2.410189.605131.03929.04823.133686.170439.310059.451135.1725.274534.243168.414029.270267.472323-.198805.392135-.641643 1.328766-.502811 2.436027.14777 1.178552.712222 2.096501 1.504301 3.089734.792077.993233 1.562267 1.745483 2.678389 2.151803 1.047958.3815 2.05827.15837 2.48512.0517.04807.0383.165943.137.400492.37155.235613.23561.333606.35287.371554.40049-.106681.42685-.329822 1.43716.05168 2.48512.406318 1.11612 1.158054 1.88631 2.15129 2.67839.993233.79208 1.911699 1.35395 3.090251 1.50172 1.105997.13868 2.039007-.30264 2.431893-.50178h.000517c.06066.0284.2035.10063.475939.27182.280697.17637.402909.27076.451136.31006-.009.4395-.000246 1.47291.605131 2.41019.644491.99772 1.547757 1.58096 2.692342 2.13217 1.144587.5512 2.165712.89695 3.347599.77876 1.110263-.11102 1.922328-.75238 2.260328-1.03353.06142.0132.212185.0504.524515.15968.305936.10705.447885.17132.505396.19947.08886.42993.328674 1.43832 1.128096 2.21795.850347.8293 1.862561 1.19681 3.101103 1.4795 1.238544.28269 2.308979.39212 3.434933.0139 1.057567-.35524 1.707957-1.16057 1.975073-1.50998.06531-.00067.223208.003.54622.0393.325161.0366.478226.0687.540535.0837.18301.40066.637285 1.32978 1.588534 1.91099 1.013563.61929 2.083406.75086 3.353801.75086 1.270393 0 2.337136-.13157 3.350699-.75086.951244-.5812 1.405522-1.51033 1.588534-1.91099.0615-.0148.214317-.0466.543636-.0837.32511-.0366.481712-.04.54622-.0393.267092.34944.914462 1.15476 1.971973 1.50998 1.125953.37822 2.198974.26879 3.437516-.0139 1.238544-.28269 2.251273-.6502 3.10162-1.4795.798923-.77914 1.036066-1.78653 1.124996-2.21691.05559-.0271.195441-.091.508496-.20051.308317-.10788.459218-.14597.521415-.15968.337994.28115 1.150055.9225 2.260327 1.03353 1.181887.11818 2.203529-.22756 3.348116-.77876 1.144586-.55121 2.050435-1.13445 2.694926-2.13217.604435-.93572.608412-1.96618.599447-2.40709.05231-.0429.180574-.14121.454236-.31316.276442-.1737.417337-.24481.476456-.27234.392805.19911 1.32525.64099 2.431377.5023 1.178552-.14777 2.097016-.70964 3.09025-1.50172.993231-.79208 1.744971-1.56227 2.151291-2.67839.38161-1.04827.15885-2.05901.0522-2.48563.0387-.0485.13754-.16648.37104-.39998.23361-.23361.3528-.33284.40204-.37155.42618.10658 1.43778.33016 2.48667-.0517 1.11613-.40632 1.88321-1.15857 2.67529-2.151803s1.35653-1.911182 1.5043-3.089734c.13874-1.106508-.30277-2.04238-.50178-2.434994.0269-.05673.0973-.194757.27234-.473356.17721-.282026.27034-.403443.30851-.451135.4402.009 1.47526-.000158 2.41174-.605131.99772-.644493 1.58096-1.547757 2.13217-2.692342.5512-1.144587.89385-2.165714.77566-3.3476-.11102-1.110226-.74932-1.922821-1.03043-2.260844.0142-.06536.053-.220527.15916-.523999.1067-.304914.17416-.451251.20413-.511596.43188-.0894 1.43612-.324456 2.21381-1.121896.8293-.850346 1.19681-1.86256 1.4795-3.101102.28269-1.238544.38909-2.308978.0109-3.434933-.35539-1.058009-1.15939-1.70988-1.50843-1.976624.00002-.06056.003-.212877.0403-.544669.0369-.327199.0685-.479535.0827-.541052.40014-.182633 1.32793-.636787 1.90944-1.588534.61929-1.013563.75344-2.082889.75344-3.353284 0-1.270393-.13416-2.337137-.75344-3.3507-.58154-.951787-1.50933-1.40844-1.90944-1.591117-.0142-.06152-.0458-.213855-.0827-.541052-.0374-.33179-.0403-.484107-.0403-.54467.34904-.266743 1.15304-.918613 1.50843-1.976624.37822-1.125955.27182-2.19639-.0109-3.434932-.28269-1.238544-.6502-2.250756-1.4795-3.101103-.77914-.798924-1.78652-1.036066-2.21691-1.124996-.0271-.05559-.0915-.195442-.20103-.508496-.10619-.303473-.14493-.458639-.15916-.523999.28157-.338761.91951-1.151666 1.03043-2.260844.11818-1.181887-.22446-2.200429-.77566-3.345015s-1.13445-2.050435-2.13217-2.694927c-.93791-.605849-1.97529-.614165-2.41433-.605131-.0406-.04939-.13587-.172979-.30902-.448551-.1725-.274534-.24265-.413511-.26975-.471806.19849-.391239.64127-1.327627.50229-2.436027-.14777-1.178553-.71222-2.097016-1.5043-3.090251-.79208-.993234-1.55917-1.748072-2.67529-2.15439-1.04772-.381418-2.05746-.155838-2.4846-.04909-.0531-.04118-.17643-.143359-.40411-.371037-.23348-.233476-.33227-.352739-.37104-.402042.10658-.42618.33016-1.437778-.0517-2.48667-.40632-1.116123-1.15858-1.886312-2.151811-2.67839-.993234-.792078-1.911698-1.35343-3.09025-1.5012-1.10734-.138842-2.042563.303005-2.434477.501778-.05673-.02692-.194757-.09728-.473356-.272335-.273663-.171954-.401928-.270239-.454236-.313159.0088-.441828.0043-1.47233-.599447-2.407088-.644492-.997722-1.55034-1.580967-2.694926-2.13217-1.144587-.551204-2.166229-.894367-3.348116-.77618-1.110238.111023-1.922311.749843-2.260327 1.030945-.0622-.01371-.213095-.05128-.521415-.159163-.313058-.109544-.45291-.173917-.508496-.201022-.08893-.43039-.326073-1.437774-1.124996-2.216919-.850347-.829296-1.862559-1.196807-3.101103-1.479496-1.238543-.282689-2.31208-.392165-3.438033-.01395-1.057511.355228-1.704881 1.160545-1.971973 1.509986-.06451.000725-.22111-.0026-.54622-.03927-.329318-.03711-.482133-.06891-.543636-.08372-.183012-.400664-.63729-1.329788-1.588534-1.910995-1.013563-.619284-2.080306-.750858-3.350699-.750858zm-.0021 7.736479c1.463466-.000001 2.909905.0732 4.33617.213423.180043.02923.363269.05574.551904.077.199609.02249.394293.03805.586528.04961 2.861978.35705 5.636725.991597 8.298202 1.873788.208263.0878.421706.172162.645955.250631.232475.08135.460315.150737.685746.213423 2.640967.97182 5.16215 2.190144 7.534424 3.629236.187845.135687.381677.269252.588078.398942.194458.122186.38724.232879.579293.337964 2.380036 1.548846 4.59872 3.323581 6.626986 5.293734.138669.155504.282446.310351.436666.464571s.309067.297997.464571.436666c1.969638 2.027686 3.744158 4.245653 5.292698 6.624919.1054.192724.21638.3857.339.580843.13001.206909.26358.401884.39946.590145 1.43834 2.371169 2.65673 4.890665 3.6282 7.53029.0628.226251.13229.454467.21394.687813.0787.224789.16311.439297.25115.648023.88224 2.662082 1.51699 5.437586 1.87379 8.300268.0115.191059.0267.384569.0491.58291.0213.188813.0477.371802.077.551905.14011 1.425587.21291 2.870822.21291 4.333585 0 1.464879-.0729 2.912702-.21343 4.340304-.029.179208-.0553.361087-.0765.548804-.0221.196542-.0375.388353-.0491.577742-.35744 2.868937-.99334 5.650374-1.87844 8.317839-.0862.205101-.16932.415058-.2465.63562-.08.228739-.14833.452985-.21032.674894-.97422 2.649157-2.19682 5.17781-3.64112 7.556645-.00064.0011-.001.002-.002.0031-.13181.183426-.26178.372597-.38809.573608-.11872.188951-.22658.376231-.32918.562757-1.55587 2.392795-3.34019 4.62264-5.321639 6.660058-.149055.133742-.297548.272227-.44545.42013-.148799.148798-.287857.297671-.422197.447518-2.030835 1.974577-4.2529 3.753187-6.636804 5.305097-.193599.10579-.387907.21737-.583944.34055-.207846.1306-.403186.26484-.592212.40153-2.368047 1.43629-4.884187 2.65332-7.519954 3.62407-.228753.0633-.46008.13342-.696082.216-.22705.0795-.443048.16506-.653707.25425-2.66791.88384-5.449642 1.51874-8.318872 1.87482-.183019.0116-.368419.0267-.558106.0481-.18404.0207-.363124.0456-.538985.0739-1.430446.14108-2.881206.21446-4.349089.21446-1.467691 0-2.917802-.0729-4.348055-.21394-.175889-.0283-.354396-.0537-.538468-.0744-.190227-.0214-.376135-.0364-.559656-.0481-2.868294-.35601-5.649227-.99086-8.316288-1.8743-.21112-.0894-.427668-.17513-.655257-.25477-.236707-.0828-.468733-.15306-.698149-.21652-2.635127-.97065-5.150408-2.18754-7.517888-3.62355-.189026-.13669-.384365-.27093-.592212-.40153-.197122-.12386-.392529-.23582-.587044-.3421-2.382383-1.55124-4.60299-3.32907-6.63267-5.302514-.134733-.15019-.274094-.299416-.42323-.448551-.148292-.148292-.297033-.287109-.446485-.421163-1.97531-2.031373-3.75428-4.254169-5.306652-6.638871-.105532-.193204-.217014-.38713-.340031-.582911-.131119-.208674-.265815-.405093-.403077-.594795-1.435729-2.367436-2.652055-4.882881-3.622518-7.517888-.0633-.228597-.133484-.459728-.216007-.695565-.07945-.22705-.165058-.443048-.254248-.653707-.883396-2.666456-1.518039-5.446632-1.874304-8.314221-.01164-.1847-.027-.371779-.04858-.563273-.0207-.183685-.04565-.361898-.0739-.537435-.14123-1.431276-.214974-2.882914-.214973-4.351673 0-1.466644.07363-2.915693.214457-4.344954.02846-.176438.05359-.355755.07441-.540536.02178-.193293.03693-.382068.04858-.56844.355621-2.861281.988627-5.635626 1.869136-8.296652.09109-.21432.178466-.434767.259416-.666109.08413-.240444.155495-.475552.219625-.708484.967756-2.625619 2.179727-5.132176 3.609599-7.492049.140502-.1935.278325-.394371.412378-.607715.126905-.201969.241579-.401592.349849-.600997 1.545037-2.371177 3.31421-4.582097 5.277714-6.603731.155907-.138983.31099-.283085.465605-.4377.154649-.154649.298558-.310179.437699-.466121 2.026974-1.968855 4.244527-3.742045 6.622852-5.290117.193041-.105603.386778-.217118.582393-.340031.206401-.12969.400233-.263255.588078-.398942 2.371707-1.438814 4.892031-2.656991 7.532357-3.628719.226096-.06282.454633-.132347.687814-.21394.224856-.07868.438723-.163594.647505-.251665 2.660582-.881764 5.434631-1.515789 8.295618-1.872754.192735-.01155.387929-.02706.588078-.04961.188813-.02127.3717-.04773.551904-.077 1.42592-.14016 2.871504-.213423 4.334619-.213423z" filter="url(#b)" stroke="#160d1d" stroke-width="2.116667"/><path d="m87.242835 89.724683c-.595363.254176-1.114671.65996-1.519425 1.136962l-.04703.05433-13.608477 18.832215-.05103.0898c-.615764 1.08496-.89476 2.47639-.374198 3.69573.527167 1.2348 1.848803 2.17423 3.16877 2.32756l22.76774 3.16402c.658342.10292 1.359082.002 1.954432-.25227.888703-.37941 1.652083-1.13513 2.048763-2.0108.4236-.93509.41673-2.1089.0195-3.0392-.49856-1.16779-1.687013-2.05559-2.907503-2.29863l-.0582-.011-.0561-.008-16.789305-2.2613 9.993176-13.706144.01407-.02157c.735629-1.066137.874782-2.607421.368699-3.79284-.379412-.888707-1.189369-1.690713-2.129386-2.017236-.897806-.31185-1.941677-.245938-2.794895.118323z" stroke="#160d1d" stroke-width="2.11667"/><path d="m8.2164016 73.410925c-.037437.926966.2732644 1.92676.8836807 2.655239.6391284.762739 1.6770687 1.23451 2.6425817 1.273508 1.287873.05202 2.679216-.625544 3.414525-1.691889l.01268-.02071 9.264649-14.207848 8.102919 14.938811.03108.04989c.660691 1.054565 1.912743 1.850169 3.181471 1.901413 1.010691.04082 2.110373-.369178 2.834019-1.097298.677662-.681856 1.115021-1.663795 1.154019-2.629308.02506-.620396-.09585-1.313272-.460873-1.919273l-11.062517-20.195039.01812.03797c-.612191-1.179426-1.95982-2.08067-3.30134-2.134852-1.32473-.05351-2.526383.703093-3.321857 1.664089l-.06364.0776-.05612.08359-12.7141762 19.327259-.035654.06268c-.3021221.547782-.4974988 1.177348-.5236249 1.824164z" stroke="#160d1d" stroke-width="2.11667"/><path d="m72.870723 36.643656c.51054.398001 1.116955.656077 1.730255.779447l.07032.01483 23.065731 2.795476.103226.0013c1.247445.01383 2.600115-.415374 3.415255-1.461.82547-1.058881 1.008-2.670075.5034-3.89939l-8.249062-21.455443c-.228525-.625918-.656025-1.190251-1.166563-1.588254-.762097-.594098-1.792845-.896416-2.75112-.819789-1.023298.08183-2.04718.655879-2.669084 1.453633-.780682 1.001425-.982482 2.471092-.604536 3.656752l.01838.05629.02023.05307 6.14592 15.78677-16.830327-2.112345-.02571-.0022c-1.28897-.127807-2.705107.496271-3.497571 1.512803-.594104.762093-.903986 1.859007-.734824 2.839641.161566.936586.724403 1.818194 1.456065 2.388572z" stroke="#160d1d" stroke-width="2.11667"/></g></svg>