<?xml version="1.0" encoding="UTF-8" standalone="no"?>
<!-- Created with Inkscape (http://www.inkscape.org/) -->

<svg
   width="352.26996mm"
   height="90.174049mm"
   viewBox="0 0 352.26996 90.174049"
   version="1.1"
   id="svg1"
   inkscape:version="1.4 (86a8ad7, 2024-10-11)"
   sodipodi:docname="Bonsai_Wordmark.svg"
   xmlns:inkscape="http://www.inkscape.org/namespaces/inkscape"
   xmlns:sodipodi="http://sodipodi.sourceforge.net/DTD/sodipodi-0.dtd"
   xmlns="http://www.w3.org/2000/svg"
   xmlns:svg="http://www.w3.org/2000/svg">
  <sodipodi:namedview
     id="namedview1"
     pagecolor="#505050"
     bordercolor="#eeeeee"
     borderopacity="1"
     inkscape:showpageshadow="0"
     inkscape:pageopacity="0"
     inkscape:pagecheckerboard="0"
     inkscape:deskcolor="#505050"
     inkscape:document-units="mm"
     inkscape:zoom="1.6364969"
     inkscape:cx="625.72681"
     inkscape:cy="75.466076"
     inkscape:window-width="3840"
     inkscape:window-height="2054"
     inkscape:window-x="-11"
     inkscape:window-y="-11"
     inkscape:window-maximized="1"
     inkscape:current-layer="layer1" />
  <defs
     id="defs1" />
  <g
     inkscape:label="Layer 1"
     inkscape:groupmode="layer"
     id="layer1"
     transform="translate(60.589583,-128.5875)">
    <path
       d="m -22.784131,175.40049 c -0.714911,0.015 -1.496499,0.1556 -2.344774,0.42234 -1.696552,0.53288 -3.068089,1.21354 -4.113416,2.04319 -2.029375,1.65329 -3.652028,3.70669 -4.867968,6.16021 -1.215342,2.4535 -1.920638,4.98091 -2.115888,7.58222 -0.118348,1.94946 0.14839,3.88452 0.799017,5.80514 0.65122,1.92004 1.686938,3.49945 3.10714,4.73882 1.563782,1.11441 3.348644,1.40037 5.356387,0.85789 2.007145,-0.54251 3.733136,-1.5001 5.178567,-2.87225 0.771382,-0.77739 1.447233,-1.65089 2.026968,-2.62112 0.579137,-0.96963 1.047734,-1.99153 1.405186,-3.06509 0.586943,-1.61425 0.981641,-3.30238 1.183501,-5.06502 0.202453,-1.76204 0.242106,-3.50966 0.118946,-5.24225 -0.121353,-1.32767 -0.501036,-2.90708 -1.13964,-4.73881 -0.638612,-1.83111 -1.521132,-3.05546 -2.648158,-3.67245 -0.582142,-0.2367 -1.230962,-0.34784 -1.945868,-0.33282 z m 244.823001,-3.58954 c -0.40671,0 -0.80801,0.0444 -1.20392,0.13335 -1.00628,0.18985 -1.95308,0.52027 -2.84101,0.99187 -0.88732,0.47159 -1.71638,1.00928 -2.48535,1.61425 -1.7386,1.37455 -3.26273,2.97917 -4.5718,4.8127 -1.30965,1.83411 -2.27147,3.82325 -2.88545,5.96856 -0.35505,1.37695 -0.50283,2.79894 -0.44397,4.26481 0.0594,1.46586 0.32561,2.88785 0.79902,4.26481 0.2367,0.72571 0.56231,1.43642 0.97683,2.1327 0.41394,0.69568 0.91736,1.28864 1.50912,1.77705 1.79988,1.38596 3.82205,1.72179 6.06588,1.00628 2.24446,-0.71552 4.20715,-1.91943 5.88867,-3.61299 2.04981,-2.07563 3.60277,-4.52854 4.66071,-7.35992 1.05795,-2.83079 1.39857,-5.66938 1.0213,-8.51519 -0.17302,-1.20934 -0.50825,-2.37422 -1.00628,-3.49463 -0.49802,-1.12103 -1.1889,-2.0486 -2.07142,-2.78454 -0.61398,-0.53288 -1.3391,-0.88792 -2.17476,-1.06576 -0.41813,-0.0889 -0.83085,-0.13335 -1.23757,-0.13335 z M 38.51759,170.99691 c -0.606772,-0.007 -1.406382,0.24451 -2.398238,0.75516 -0.992461,0.51065 -1.732601,0.96962 -2.221022,1.37694 -1.364927,1.0297 -2.514788,2.2883 -3.450174,3.7764 -0.935385,1.48868 -1.640675,3.07288 -2.117078,4.75381 -0.481213,1.74281 -0.673458,3.52949 -0.577336,5.3612 0.09612,1.83112 0.525666,3.55891 1.288031,5.18338 0.473405,1.01648 1.065755,1.94465 1.776458,2.78392 0.710695,0.83926 1.53975,1.53014 2.48775,2.07323 0.848878,0.46861 1.786665,0.74494 2.813371,0.82904 1.026095,0.0836 2.023363,0.005 2.990589,-0.23668 1.13003,-0.31362 2.18617,-0.81224 3.168416,-1.49589 0.982247,-0.68368 1.860563,-1.44845 2.635542,-2.29552 2.168748,-2.66319 3.397309,-5.86644 3.685678,-9.61099 0.28836,-3.74395 -0.584545,-6.97784 -2.619325,-9.6999 -0.723316,-0.84948 -1.586612,-1.58 -2.59109,-2.19218 -1.004469,-0.61157 -2.07563,-0.98704 -3.212869,-1.12523 -0.239704,-0.003 -0.501034,-0.027 -0.785193,-0.0739 -0.28356,-0.0469 -0.574935,-0.10093 -0.87351,-0.16281 z m 238.19179,-12.92599 c 1.67012,-0.0594 3.30419,0.0294 4.91423,0.26614 1.26161,0.22709 2.48716,0.60197 3.68268,1.12462 1.1895,0.52327 2.2108,1.2532 3.05787,2.19038 0.75096,0.91737 1.26161,1.98312 1.52594,3.19666 0.26432,1.21353 0.38448,2.39704 0.36647,3.5517 -0.0901,1.83232 -0.34844,3.64242 -0.781,5.43088 -0.43255,1.78786 -0.84106,3.56913 -1.23156,5.34196 -0.73894,3.62561 -1.14746,7.3257 -1.20753,11.09909 -0.066,3.77338 0.0601,7.53234 0.38449,11.27629 0.18623,1.4208 0.34243,2.8416 0.45657,4.26181 0.11415,1.4208 0.12015,2.8416 0.012,4.26241 -0.11414,0.9594 -0.35444,1.88158 -0.72091,2.76711 -0.36647,0.8855 -0.87711,1.65989 -1.52592,2.32313 -2.05463,1.90683 -4.68595,2.8296 -7.89403,2.76772 -3.20807,-0.0619 -6.01962,-0.82666 -8.42867,-2.29371 -1.1835,-0.78941 -2.22283,-1.75662 -3.10593,-2.90048 -0.88914,-1.14445 -1.62808,-2.34837 -2.21681,-3.61119 -0.99608,-1.90861 -1.76025,-3.92177 -2.29492,-6.03764 -0.53468,-2.1165 -0.91436,-4.24739 -1.13846,-6.39271 -0.42172,-2.9257 -0.61757,-6.7039 -0.58754,-11.33459 0.03,-4.63124 0.44758,-9.13697 1.25319,-13.51832 0.80563,-4.38075 2.16095,-7.65911 4.06536,-9.83506 0.84708,-0.87772 1.84434,-1.5782 2.9858,-2.10147 1.14744,-0.52266 2.31893,-0.92697 3.52044,-1.21294 1.61005,-0.35565 3.24412,-0.56231 4.90823,-0.62179 z M 160.96122,156.4771 c 2.86204,-0.0841 5.71687,0.0247 8.56388,0.32561 1.73799,0.1478 3.49823,0.35506 5.28069,0.62119 1.78246,0.26614 3.45377,0.76898 5.01455,1.50851 0.90174,0.42655 1.70076,1.0231 2.39584,1.78968 0.69508,0.76657 1.19792,1.62926 1.50852,2.58808 0.8014,2.42287 0.76717,4.88239 -0.10335,7.37975 -0.8699,2.49676 -2.41327,4.3363 -4.62947,5.51739 -1.08016,0.52628 -2.23363,0.8669 -3.46158,1.0219 -1.22736,0.1556 -2.4403,0.17062 -3.63822,0.0445 -1.65449,-0.20967 -3.28616,-0.53048 -4.8962,-0.96242 -1.60944,-0.43195 -3.21228,-0.78279 -4.80671,-1.05193 -0.89753,-0.13277 -1.79506,-0.19225 -2.692,-0.17723 -0.89754,0.015 -1.7356,0.19285 -2.51479,0.53288 -0.64822,0.30878 -1.06756,0.72812 -1.2574,1.25919 -0.18984,0.53048 -0.16521,1.09821 0.0739,1.70316 0.38988,0.9378 1.03091,1.69836 1.92303,2.2805 0.89212,0.58273 1.82931,1.04712 2.81036,1.39255 2.37422,0.88614 4.7256,1.86838 7.05534,2.94735 2.32976,1.07836 4.59283,2.26848 6.78921,3.56912 1.32888,0.81704 2.60551,1.73079 3.83105,2.74009 1.22496,1.00987 2.23605,2.18976 3.03205,3.53967 1.58,3.18405 1.99934,6.58196 1.2574,10.19373 -0.74195,3.61118 -2.54183,6.44617 -5.39905,8.50438 -1.86357,1.26941 -3.90494,2.16154 -6.12356,2.677 -2.21862,0.51485 -4.43723,0.84527 -6.65584,0.99065 -3.14559,0.22468 -6.32062,0.24932 -9.52568,0.0746 -3.20446,-0.17542 -6.38009,-0.4758 -9.52567,-0.90233 -1.4076,-0.21207 -2.79295,-0.58695 -4.15607,-1.12403 -1.36313,-0.53767 -2.42347,-1.38536 -3.18045,-2.54423 -1.07474,-1.85095 -1.5872,-4.06475 -1.53793,-6.64022 0.0492,-2.57606 0.71971,-4.70095 2.01134,-6.37467 0.99607,-1.04773 2.25826,-1.73321 3.78661,-2.05581 1.52832,-0.32322 3.02724,-0.38689 4.49668,-0.19224 0.68307,0.0666 1.90683,0.28836 3.67246,0.66624 1.76566,0.37788 3.52467,0.74854 5.2765,1.11321 1.75243,0.36466 2.95035,0.5611 3.59376,0.58873 0.62118,0 1.24237,-0.14836 1.86356,-0.44454 0.6218,-0.29618 1.06515,-0.74015 1.33129,-1.3325 0.31361,-1.36013 -0.10573,-2.49074 -1.25679,-3.39129 -1.15166,-0.90115 -2.42828,-1.58722 -3.83106,-2.05882 -1.59503,-0.52565 -3.16782,-1.04412 -4.71838,-1.55477 -1.55057,-0.51125 -3.09393,-1.05915 -4.63007,-1.6443 -1.13124,-0.40489 -2.24085,-0.86869 -3.32762,-1.39195 -1.08739,-0.52325 -2.10807,-1.16489 -3.06208,-1.92423 -1.01049,-0.84227 -1.8882,-1.82451 -2.63254,-2.94734 -0.74434,-1.12343 -1.32649,-2.31295 -1.74522,-3.56973 -0.7053,-2.22883 -0.9522,-4.52314 -0.74013,-6.88233 0.21207,-2.35979 0.85307,-4.56398 1.92303,-6.61198 0.59657,-1.13123 1.32649,-2.18137 2.18918,-3.14979 0.8627,-0.96903 1.82931,-1.8119 2.89928,-2.52921 1.31387,-0.87231 2.73886,-1.55297 4.27442,-2.04079 1.53614,-0.48842 3.10895,-0.87291 4.71838,-1.15346 2.78814,-0.52807 5.61352,-0.83386 8.47553,-0.91736 z m -78.044338,-0.34063 c 0.97865,-0.012 1.92063,0.13097 2.82537,0.42955 1.59803,0.59895 2.90049,1.67853 3.90617,3.2387 1.00627,1.56018 1.71638,3.20206 2.13089,4.92504 2.06121,-2.23303 4.50752,-4.06715 7.33831,-5.50177 2.831378,-1.43402 5.751088,-2.20299 8.759108,-2.30692 2.0408,-0.01 4.05213,0.27635 6.03345,0.85789 1.98131,0.58153 3.75536,1.51812 5.32215,2.80976 0.76417,0.65303 1.48388,1.35832 2.15913,2.11467 0.67525,0.75697 1.33549,1.55057 1.98071,2.38083 1.63407,2.40064 2.89087,5.02357 3.77038,7.86877 0.87952,2.84521 1.51572,5.70603 1.90742,8.58188 0.54249,3.68807 0.81825,7.4128 0.82846,11.17478 0.009,3.76197 -0.30579,7.45723 -0.94681,11.08584 -0.20967,1.43581 -0.47099,2.85662 -0.78398,4.263 -0.3124,1.40579 -0.83988,2.70824 -1.58181,3.90736 -1.48928,2.15192 -3.36008,3.68988 -5.61172,4.61325 -2.25166,0.92397 -4.46366,1.11141 -6.63662,0.56171 -2.17295,-0.54971 -3.88572,-1.95909 -5.13891,-4.22757 -0.46799,-0.9522 -0.80321,-1.94886 -1.00567,-2.98998 -0.20246,-1.04112 -0.30099,-2.09666 -0.29618,-3.16721 -0.0146,-2.66439 0.13338,-5.32877 0.44396,-7.99254 0.3106,-2.66437 0.51786,-5.32815 0.62179,-7.99253 0.0835,-2.33397 -0.0246,-4.68234 -0.32562,-7.04513 -0.30097,-2.36339 -0.94199,-4.59343 -1.92363,-6.69008 -0.17241,-0.30338 -0.35986,-0.61459 -0.56232,-0.93238 -0.20185,-0.31841 -0.44876,-0.59957 -0.73953,-0.84407 -1.24058,-1.03272 -2.6067,-1.18591 -4.09839,-0.45838 -1.492298,0.72751 -2.769518,1.78847 -3.832268,3.18223 -1.10961,1.44301 -1.93806,3.05607 -2.48535,4.83972 -0.54788,1.78368 -0.90294,3.60398 -1.06575,5.46154 -0.24391,3.08611 -0.3178,6.20887 -0.22168,9.36888 0.0961,3.16001 0.0517,6.31279 -0.13338,9.45778 -0.10572,1.01169 -0.2487,2.00775 -0.42893,2.98999 -0.18024,0.98165 -0.471,1.91884 -0.87291,2.81216 -1.03091,2.33577 -2.63855,3.97887 -4.82232,4.92926 -2.18377,0.9498 -4.44023,1.16367 -6.76878,0.64042 -2.32855,-0.52387 -4.22515,-1.82752 -5.69041,-3.91217 -0.69268,-1.08016 -1.20092,-2.26428 -1.52414,-3.55229 -0.3226,-1.28745 -0.5647,-2.58988 -0.72452,-3.90737 -0.53047,-4.80308 -0.7131,-9.64282 -0.54789,-14.51981 0.16521,-4.87698 0.30818,-9.74615 0.42955,-14.60811 0.054,-1.95847 0.15259,-3.9314 0.29558,-5.9181 0.14297,-1.98733 0.35985,-3.95902 0.65121,-5.9157 0.17002,-1.01048 0.42174,-2.00655 0.75456,-2.98759 0.33282,-0.98104 0.79121,-1.91763 1.37574,-2.80976 0.49083,-0.77379 1.13725,-1.47367 1.93866,-2.09966 0.80142,-0.626 1.6545,-1.14866 2.55924,-1.56799 0.84588,-0.35265 1.75844,-0.53528 2.73768,-0.5479 z m 140.545198,-0.46979 c 0.98224,0.008 1.9705,0.0558 2.96596,0.14418 3.98004,0.35264 7.79728,1.27421 11.45171,2.76531 1.44243,0.59175 2.84823,1.33068 4.21675,2.21801 1.36853,0.88732 2.56706,1.92244 3.59556,3.10533 0.65542,0.83567 1.20813,1.73801 1.6569,2.70644 0.44877,0.96843 0.76417,1.95908 0.94681,2.97196 0.85067,5.11308 1.30965,10.27783 1.37635,15.49484 0.066,5.21702 0.67285,10.35293 1.81969,15.40774 0.14298,0.57853 0.40912,1.55237 0.79781,2.9203 0.38869,1.36854 0.75095,2.73707 1.08738,4.10501 0.33583,1.36852 0.49683,2.34176 0.48182,2.92091 -0.012,0.96661 -0.25353,1.9044 -0.72453,2.81214 -0.47099,0.90776 -1.09757,1.66774 -1.87918,2.2793 -1.61063,1.23577 -3.50905,1.96089 -5.69641,2.17537 -2.18739,0.21506 -4.23418,-0.0366 -6.1404,-0.75456 -2.20419,-0.90296 -4.06895,-2.38324 -5.59248,-4.44023 -1.52414,-2.05761 -2.61932,-4.24799 -3.28497,-6.57174 -0.96903,1.85035 -2.22642,3.50785 -3.77278,4.9737 -1.54636,1.46527 -3.24772,2.64997 -5.10468,3.55352 -3.65443,1.68273 -7.39176,2.40725 -11.21141,2.17476 -3.82025,-0.23311 -7.33709,-1.34031 -10.55177,-3.32222 -3.21408,-1.98131 -5.74029,-4.75382 -7.57862,-8.31695 -1.05192,-2.27748 -1.75663,-4.70456 -2.11407,-7.28122 -0.35746,-2.57607 -0.44096,-5.12571 -0.25113,-7.64831 0.30519,-3.76196 1.08378,-7.45665 2.33576,-11.08525 1.25139,-3.6286 2.9173,-6.99707 4.99654,-10.1066 2.14111,-3.08852 4.68896,-5.66639 7.64409,-7.73422 2.95455,-2.06781 6.24311,-3.55109 9.86571,-4.45104 2.82959,-0.70048 5.71745,-1.03931 8.66359,-1.01648 z m -188.014382,-1.1793 c 2.149523,0.0276 4.278623,0.24691 6.386699,0.65724 3.008011,0.58634 5.933118,1.57219 8.775322,2.95754 2.841613,1.38536 5.320943,3.19906 7.437423,5.4417 1.65331,1.73981 3.04767,3.7025 4.18371,5.88687 1.13544,2.18436 2.02757,4.44383 2.6758,6.77898 0.86269,3.41354 1.14865,6.92318 0.85728,10.52895 -0.29076,3.60638 -1.01048,7.08659 -2.15853,10.44064 -0.77859,2.14233 -1.79328,4.18851 -3.04526,6.13859 -1.2514,1.95006 -2.68061,3.72953 -4.28704,5.33897 -4.122425,3.8731 -8.891873,6.53989 -14.306541,8.00213 -5.415265,1.46226 -10.867776,1.55538 -16.356934,0.28057 -2.508786,-0.60617 -4.884195,-1.58241 -7.126842,-2.92871 -2.24264,-1.34571 -4.204128,-2.97257 -5.88446,-4.88059 -1.537948,-1.73501 -2.80976,-3.67787 -3.814836,-5.8274 -1.005673,-2.14952 -1.74461,-4.38795 -2.218008,-6.71591 -0.67766,-3.70729 -0.771383,-7.48849 -0.28116,-11.34359 0.49082,-3.85569 1.372742,-7.57739 2.646961,-11.16634 1.321072,-3.69049 3.173823,-7.08299 5.559445,-10.17811 0.946197,-1.32107 2.010749,-2.55324 3.193645,-3.69708 1.182904,-1.14326 2.484154,-2.07984 3.903152,-2.80976 0.534675,-0.2265 1.091582,-0.42354 1.670719,-0.59116 0.579136,-0.16761 1.166079,-0.36466 1.759632,-0.59175 2.631333,-0.99065 5.389432,-1.55296 8.273688,-1.68573 0.720918,-0.0337 1.440026,-0.0457 2.156135,-0.036 z M -44.767201,129.7366 c 1.640076,0.0637 3.3138,0.37788 5.019961,0.94259 3.033247,1.00387 5.192985,2.72566 6.480415,5.16535 0.628997,1.261 0.998466,2.61752 1.10961,4.07016 0.111137,1.45325 0.09612,2.89868 -0.04446,4.3369 -0.359851,4.13685 -1.000864,8.23645 -1.923037,12.29759 -0.922771,4.06176 -1.741005,8.12951 -2.45651,12.20388 2.598291,-3.21408 5.660975,-5.75109 9.188047,-7.61165 3.527072,-1.86056 7.080578,-2.68901 10.659313,-2.48536 3.57934,0.20367 6.745355,1.79508 9.499243,4.77306 1.951274,2.22101 3.518063,4.72979 4.700961,7.52814 1.182902,2.79775 1.980711,5.69281 2.394639,8.68582 0.470998,3.10713 0.564713,6.2515 0.281153,9.43315 -0.28356,3.18103 -0.928776,6.23711 -1.936856,9.16643 -0.83506,2.37901 -1.914026,4.63848 -3.2375,6.77838 -1.322882,2.13991 -2.845809,4.102 -4.567591,5.88566 -1.000267,1.0201 -2.075032,1.96629 -3.223091,2.83861 -1.148052,0.8723 -2.399442,1.58241 -3.754761,2.12909 -1.072358,0.40672 -2.18196,0.68728 -3.328817,0.84287 -1.146254,0.155 -2.285902,0.22889 -3.417735,0.22169 -2.142914,-0.0739 -4.27802,-0.42896 -6.406523,-1.06456 -2.127898,-0.63561 -4.174688,-1.46345 -6.140385,-2.48354 -0.424136,0.77317 -0.966626,1.47306 -1.627461,2.09906 -0.660836,0.62599 -1.380549,1.14866 -2.159738,1.56739 -1.918834,0.89272 -4.029909,1.23817 -6.332629,1.03631 -2.303319,-0.20185 -4.296047,-0.98105 -5.977579,-2.33636 -1.11201,-0.97083 -2.024566,-2.1339 -2.737071,-3.48983 -0.713103,-1.35532 -1.300046,-2.75509 -1.76083,-4.19932 -1.383555,-4.0984 -2.345378,-8.30193 -2.885462,-12.6106 -0.540081,-4.30866 -0.88012,-8.63233 -1.020694,-12.97163 -0.249315,-5.62855 -0.283561,-11.2709 -0.103935,-16.92706 0.180229,-5.65557 0.648819,-11.29792 1.405783,-16.92586 0.283554,-1.90442 0.633799,-3.80883 1.050733,-5.71325 0.416324,-1.90441 0.973835,-3.74995 1.671915,-5.53601 0.344839,-0.89754 0.74975,-1.76625 1.212942,-2.60491 0.463789,-0.83866 1.045925,-1.58841 1.745814,-2.24925 0.660836,-0.64402 1.410586,-1.16187 2.249249,-1.55417 0.838665,-0.3923 1.706163,-0.70349 2.604303,-0.93238 0.706493,-0.14538 1.418997,-0.24091 2.138711,-0.28657 0.539483,-0.0343 1.08257,-0.0408 1.629869,-0.0198 z m 323.050591,-1.14385 c 1.38775,0.0337 2.75148,0.22889 4.09719,0.58574 2.69141,0.71431 4.90221,2.00055 6.65044,3.8587 1.74221,1.85875 2.62533,4.21494 2.64936,7.06856 -0.006,0.83626 -0.14419,1.67912 -0.40252,2.52921 -0.25833,0.85007 -0.59476,1.6617 -1.02129,2.43488 -1.15348,2.2066 -2.7515,3.88753 -4.78807,5.044 -2.04259,1.15646 -4.34953,1.68393 -6.92078,1.58241 -3.17803,-0.13518 -6.11576,-1.04774 -8.81318,-2.73588 -2.70343,-1.68874 -4.22335,-4.05094 -4.55978,-7.08538 -0.0481,-1.24238 0.024,-2.45531 0.2223,-3.63821 0.20424,-1.1829 0.4806,-2.33576 0.84706,-3.45858 0.50464,-1.30727 1.29765,-2.42228 2.37901,-3.34445 1.08137,-0.92217 2.25887,-1.62266 3.53248,-2.10146 0.30039,-0.10334 0.61879,-0.16281 0.9492,-0.17783 0.33043,-0.0144 0.64282,-0.0739 0.9432,-0.17722 1.43582,-0.29017 2.8416,-0.41813 4.23538,-0.38449 z"
       fill="#ffffff"
       fill-rule="evenodd"
       id="path1"
       style="stroke-width:0.600761" />
  </g>
</svg>
