<?xml version="1.0" encoding="UTF-8" standalone="no"?>
<svg
   width="3440"
   height="1440"
   version="1.1"
   viewBox="0 0 910.18906 381.00938"
   id="svg446"
   sodipodi:docname="refresh_banner_21_9.svg"
   inkscape:export-filename="refresh_banner_21_9_1440x.png"
   inkscape:export-xdpi="96"
   inkscape:export-ydpi="96"
   inkscape:version="1.2.2 (b0a8486541, 2022-12-01)"
   xmlns:inkscape="http://www.inkscape.org/namespaces/inkscape"
   xmlns:sodipodi="http://sodipodi.sourceforge.net/DTD/sodipodi-0.dtd"
   xmlns="http://www.w3.org/2000/svg"
   xmlns:svg="http://www.w3.org/2000/svg">
  <defs
     id="defs450">
    <rect
       x="492.76727"
       y="-436.46738"
       width="1349.3087"
       height="340.30768"
       id="rect677" />
  </defs>
  <sodipodi:namedview
     id="namedview448"
     pagecolor="#505050"
     bordercolor="#eeeeee"
     borderopacity="1"
     inkscape:showpageshadow="0"
     inkscape:pageopacity="0"
     inkscape:pagecheckerboard="0"
     inkscape:deskcolor="#505050"
     showgrid="false"
     inkscape:zoom="0.50146486"
     inkscape:cx="1580.37"
     inkscape:cy="795.66891"
     inkscape:window-width="3440"
     inkscape:window-height="1371"
     inkscape:window-x="0"
     inkscape:window-y="0"
     inkscape:window-maximized="1"
     inkscape:current-layer="g4527" />
  <filter
     id="d"
     x="-0.32023911"
     y="-0.32023911"
     width="1.6404782"
     height="1.6404782"
     color-interpolation-filters="sRGB">
    <feFlood
       flood-opacity=".89804"
       result="flood"
       id="feFlood404" />
    <feComposite
       in="flood"
       in2="SourceGraphic"
       operator="out"
       result="composite1"
       id="feComposite406" />
    <feGaussianBlur
       in="composite1"
       result="blur"
       stdDeviation="5"
       id="feGaussianBlur408" />
    <feOffset
       dx="-0"
       dy="0"
       result="offset"
       id="feOffset410" />
    <feComposite
       in="offset"
       in2="SourceGraphic"
       operator="in"
       result="composite2"
       id="feComposite412" />
  </filter>
  <filter
     id="c"
     x="-0.01029937"
     y="-0.010299319"
     width="1.0205987"
     height="1.0205986"
     color-interpolation-filters="sRGB">
    <feFlood
       flood-opacity=".89804"
       result="flood"
       id="feFlood415" />
    <feComposite
       in="flood"
       in2="SourceGraphic"
       operator="in"
       result="composite1"
       id="feComposite417" />
    <feGaussianBlur
       in="composite1"
       result="blur"
       stdDeviation=".00023253779"
       id="feGaussianBlur419" />
    <feOffset
       dx="-0"
       dy="0"
       result="offset"
       id="feOffset421" />
    <feComposite
       in="SourceGraphic"
       in2="offset"
       result="composite2"
       id="feComposite423" />
  </filter>
  <g
     id="g4527"
     inkscape:label="Background">
    <path
       id="rect4541"
       style="fill:#160d1d;stroke-width:4.5341"
       d="M 3.5833332e-6,0 H 910.18907 V 381.00938 H 3.5833332e-6 Z"
       inkscape:label="Bottom" />
    <path
       id="path1595"
       style="fill:#1b1023;fill-opacity:1;stroke-width:4.57126;stroke-dasharray:none"
       d="M 692.5081,44.213374 C 558.79088,43.867805 459.87823,87.08495 340.42925,98.685806 225.38089,100.53192 111.37158,84.518282 0,63.819894 V 381.00936 H 910.18905 V 73.990755 C 851.35385,46.280189 773.56048,47.58573 705.55854,44.385633 701.17079,44.281305 696.82155,44.224521 692.5081,44.213374 Z"
       inkscape:label="Wave1" />
    <path
       id="path1663"
       style="fill:#211429;fill-opacity:1;stroke-width:4.57126;stroke-dasharray:none"
       d="M 0,159.0309 V 381.00936 H 910.18905 V 232.30779 c -9.37321,-0.44535 -19.02655,-0.12066 -28.91284,1.10867 C 759.02266,247.35754 637.16644,225.91705 520.27363,200.7217 435.81667,181.66372 347.33095,177.50631 260.13125,186.18373 174.89811,188.51698 79.196616,185.66697 0,159.0309 Z"
       inkscape:label="Wave2" />
    <path
       id="path1731"
       style="fill:#261731;fill-opacity:1;stroke-width:4.57126;stroke-dasharray:none"
       d="M 13.783757,278.37743 C 9.1847968,278.39975 4.5639057,278.56605 0,278.90042 v 102.10894 h 910.18905 v -83.31135 c -18.06287,-2.75854 -36.69518,-3.86352 -54.34895,-3.95782 -84.39015,-4.90604 -168.91828,1.00935 -251.98897,12.29033 -93.54216,10.34419 -189.31052,25.72585 -283.58225,11.09279 C 230.53242,302.2957 140.7786,286.07693 48.825072,280.78425 38.299767,279.28678 26.11872,278.3176 13.783757,278.37743 Z"
       inkscape:label="Wave3" />
    <path
       id="path4622"
       style="opacity:0.315122;fill:#ffffff;fill-opacity:1;stroke-width:0.976035;stroke-dasharray:none"
       inkscape:label="Stars"
       inkscape:transform-center-x="-0.28741483"
       inkscape:transform-center-y="-0.59659524"
       d="M 298.92348 23.151611 L 292.40485 24.259065 L 296.62382 29.351386 L 298.92348 23.151611 z M 521.76549 29.059923 L 517.85039 30.871744 L 521.37791 33.356924 L 521.76549 29.059923 z M 50.121688 34.242164 L 44.420087 35.21112 L 48.109875 39.663671 L 50.121688 34.242164 z M 323.75203 34.708813 L 322.23529 36.501513 L 324.54528 36.919069 L 323.75203 34.708813 z M 233.69536 43.329688 L 231.78484 43.870753 L 233.20908 45.254682 L 233.69536 43.329688 z M 777.26936 46.668584 L 772.2897 46.875812 L 774.95885 51.084444 L 777.26936 46.668584 z M 374.2272 50.482916 L 370.70794 54.011986 L 375.52327 55.294627 L 374.2272 50.482916 z M 503.34084 60.029338 L 502.10471 61.594139 L 504.07776 61.881467 L 503.34084 60.029338 z M 896.05573 62.890732 L 892.20368 67.713296 L 898.30578 68.638327 L 896.05573 62.890732 z M 417.63543 69.054332 L 418.41732 71.296628 L 419.96868 69.497727 L 417.63543 69.054332 z M 563.94897 70.662026 L 564.00219 73.27485 L 566.23777 71.921928 L 563.94897 70.662026 z M 110.21924 86.565839 L 109.01463 89.858225 L 112.46877 89.255147 L 110.21924 86.565839 z M 21.796622 92.961988 L 19.781192 94.217757 L 21.876722 95.336062 L 21.796622 92.961988 z M 553.57002 102.61228 L 553.26202 108.38727 L 558.41738 105.76669 L 553.57002 102.61228 z M 325.04294 109.92158 L 323.28538 111.06831 L 325.15715 112.01763 L 325.04294 109.92158 z M 734.23889 114.89814 L 734.78254 118.7905 L 737.88165 116.37354 L 734.23889 114.89814 z M 489.29122 124.75928 L 486.17299 126.36232 L 489.12068 128.26096 L 489.29122 124.75928 z M 507.49469 127.32456 L 507.89985 130.93011 L 510.81912 128.77567 L 507.49469 127.32456 z M 392.54901 128.42168 L 388.87162 129.80716 L 391.91079 132.29957 L 392.54901 128.42168 z M 791.11899 129.85315 L 787.69069 131.04122 L 790.43374 133.41581 L 791.11899 129.85315 z M 317.12592 150.27773 L 313.05578 154.42435 L 318.68193 155.87546 L 317.12592 150.27773 z M 511.56896 155.66358 L 507.99235 160.65461 L 514.10324 161.25666 L 511.56896 155.66358 z M 668.68624 163.81574 L 662.58413 164.748 L 666.44239 169.5654 L 668.68624 163.81574 z M 658.99873 174.57814 L 656.95746 180.74122 L 663.31537 179.42757 L 658.99873 174.57814 z M 628.76883 179.75211 L 626.66865 183.9964 L 631.39405 183.69305 L 628.76883 179.75211 z M 903.01827 190.15638 L 901.28603 192.11342 L 903.84615 192.63484 L 903.01827 190.15638 z M 13.040352 191.57493 L 13.823269 193.91903 L 15.461969 192.06846 L 13.040352 191.57493 z M 275.18326 199.74518 L 270.71365 200.03199 L 273.19677 203.75899 L 275.18326 199.74518 z M 246.53727 202.82362 L 240.52457 204.06595 L 244.60711 208.65235 L 246.53727 202.82362 z M 237.56706 213.39326 L 235.44517 218.83079 L 241.2155 217.94917 L 237.56706 213.39326 z M 374.04581 224.69156 L 376.7253 230.60555 L 380.50707 225.32874 L 374.04581 224.69156 z M 566.46412 226.34008 L 567.93538 231.63446 L 571.78486 227.71315 L 566.46412 226.34008 z M 120.30104 247.58168 L 119.65352 250.95158 L 122.89578 249.82759 L 120.30104 247.58168 z M 497.20721 248.63745 L 496.6031 252.30502 L 500.08101 250.99447 L 497.20721 248.63745 z M 387.5094 249.9325 L 384.74878 251.97015 L 387.89285 253.34271 L 387.5094 249.9325 z M 400.46138 259.58021 L 400.28051 263.2824 L 403.57806 261.58789 L 400.46138 259.58021 z M 172.93375 261.41373 L 170.00259 263.69996 L 173.44795 265.09474 L 172.93375 261.41373 z M 560.3398 267.81918 L 560.44729 269.80154 L 562.10976 268.71683 L 560.3398 267.81918 z M 332.6406 280.5934 L 327.19015 283.36487 L 332.31503 286.69963 L 332.6406 280.5934 z M 894.50333 294.39341 L 894.58809 296.9034 L 896.71927 295.5758 L 894.50333 294.39341 z M 802.36767 300.18545 L 798.71561 300.82315 L 801.09382 303.66646 L 802.36767 300.18545 z M 334.45035 304.46023 L 332.33621 305.73977 L 334.50099 306.93146 L 334.45035 304.46023 z M 18.280471 308.8456 L 20.408559 314.28158 L 24.051837 309.7205 L 18.280471 308.8456 z M 391.12477 315.23555 L 391.82139 316.98742 L 392.99034 315.50789 L 391.12477 315.23555 z M 475.21938 319.81161 L 473.57913 321.71386 L 476.04623 322.18258 L 475.21938 319.81161 z M 512.70587 321.46529 L 513.93167 326.01603 L 517.25971 322.67869 L 512.70587 321.46529 z M 134.93669 325.44706 L 132.75175 329.62314 L 137.46114 329.42728 L 134.93669 325.44706 z M 587.32538 346.00187 L 585.15026 351.8647 L 591.31541 350.8172 L 587.32538 346.00187 z M 671.05049 347.34704 L 670.5363 349.38211 L 672.55586 348.81055 L 671.05049 347.34704 z M 866.76533 353.25897 L 864.63827 358.99157 L 870.66699 357.96681 L 866.76533 353.25897 z M 574.4752 356.16119 L 575.31444 358.49805 L 576.918 356.60251 L 574.4752 356.16119 z M 366.35358 359.92746 L 365.94378 364.47096 L 370.08368 362.55475 L 366.35358 359.92746 z " />
    <path
       id="path4676"
       style="opacity:0.63913;fill:#ffffff;fill-opacity:1;stroke-width:0.904183;stroke-dasharray:none"
       inkscape:label="Bright Stars"
       inkscape:transform-center-x="-0.14863502"
       inkscape:transform-center-y="-0.13365791"
       d="M 833.27094 10.90968 L 829.12329 12.82899 L 832.8601 15.460936 L 833.27094 10.90968 z M 623.53543 16.893441 L 621.92825 18.79208 L 624.37622 19.234441 L 623.53543 16.893441 z M 528.1482 26.024892 L 526.12502 26.597998 L 527.63298 28.06306 L 528.1482 26.024892 z M 722.97677 53.271445 L 723.80516 55.647069 L 725.44799 53.741712 L 722.97677 53.271445 z M 469.47851 62.356385 L 464.76136 62.55276 L 467.28996 66.539695 L 469.47851 62.356385 z M 87.635051 65.96969 L 84.301839 69.312721 L 88.863946 70.528697 L 87.635051 65.96969 z M 397.3633 71.819606 L 396.0879 75.307334 L 399.74565 74.668081 L 397.3633 71.819606 z M 209.95773 75.013805 L 208.78723 76.496438 L 210.65641 76.769297 L 209.95773 75.013805 z M 582.01756 77.725334 L 578.36756 82.29416 L 584.14978 83.16958 L 582.01756 77.725334 z M 303.70677 78.59507 L 301.57144 79.925254 L 303.79152 81.108673 L 303.70677 78.59507 z M 267.37889 85.08734 L 267.42902 87.562702 L 269.54729 86.281612 L 267.37889 85.08734 z M 866.95757 88.816403 L 866.63096 94.932976 L 872.09175 92.157367 L 866.95757 88.816403 z M 798.87323 112.27446 L 795.57102 113.97259 L 798.69287 115.98337 L 798.87323 112.27446 z M 41.039332 122.28237 L 39.37376 123.36863 L 41.147338 124.26731 L 41.039332 122.28237 z M 428.71203 126.99692 L 429.22726 130.68413 L 432.16255 128.39429 L 428.71203 126.99692 z M 213.8935 138.76962 L 214.27798 142.18552 L 217.04429 140.14528 L 213.8935 138.76962 z M 104.99411 139.80886 L 101.51 141.12199 L 104.38948 143.48263 L 104.99411 139.80886 z M 482.59947 141.1654 L 479.35205 142.29042 L 481.95092 144.54099 L 482.59947 141.1654 z M 822.4703 145.00815 L 818.68181 150.29427 L 825.15392 150.93197 L 822.4703 145.00815 z M 33.538313 160.51612 L 29.682123 164.44362 L 35.012161 165.81877 L 33.538313 160.51612 z M 366.60628 173.34149 L 360.82613 174.22466 L 364.4813 178.78935 L 366.60628 173.34149 z M 294.43165 183.04501 L 295.2616 185.52709 L 296.99693 183.56696 L 294.43165 183.04501 z M 357.42936 183.53802 L 355.49506 189.37656 L 361.51861 188.13217 L 357.42936 183.53802 z M 328.78957 188.44016 L 326.79895 192.46069 L 331.2763 192.17336 L 328.78957 188.44016 z M 572.09234 191.69844 L 567.35814 192.00231 L 569.98802 195.94945 L 572.09234 191.69844 z M 541.75029 194.95931 L 535.38153 196.27502 L 539.70541 201.13273 L 541.75029 194.95931 z M 588.6137 198.29717 L 586.97242 200.15085 L 589.39869 200.64489 L 588.6137 198.29717 z M 532.24935 206.15425 L 530.00188 211.91424 L 536.1138 210.97991 L 532.24935 206.15425 z M 880.61443 219.86796 L 882.17303 225.47551 L 886.24989 221.32217 L 880.61443 219.86796 z M 87.463997 231.01587 L 90.002406 236.61825 L 93.585222 231.61895 L 87.463997 231.01587 z M 408.04198 242.36637 L 407.3557 245.93574 L 410.7902 244.74612 L 408.04198 242.36637 z M 807.25845 243.4857 L 806.61868 247.3698 L 810.30227 245.98174 L 807.25845 243.4857 z M 691.06733 244.85671 L 688.14238 247.01426 L 691.47352 248.46847 L 691.06733 244.85671 z M 463.78931 257.01803 L 460.68554 259.43913 L 464.33451 260.91659 L 463.78931 257.01803 z M 874.12733 263.80279 L 874.24154 265.90194 L 876.00272 264.75315 L 874.12733 263.80279 z M 112.48996 264.06842 L 112.31942 267.5763 L 115.44282 265.97016 L 112.48996 264.06842 z M 48.237003 283.97725 L 43.072333 286.60196 L 47.928487 289.76205 L 48.237003 283.97725 z M 580.54681 297.05171 L 580.6264 299.42889 L 582.64596 298.17105 L 580.54681 297.05171 z M 493.25645 302.53833 L 489.79766 303.14296 L 492.05029 305.83692 L 493.25645 302.53833 z M 634.86731 302.61275 L 632.6276 303.96722 L 634.92106 305.22971 L 634.86731 302.61275 z M 299.98184 307.25754 L 302.23654 313.01444 L 306.09531 308.18361 L 299.98184 307.25754 z M 694.89613 314.02525 L 695.63513 315.881 L 696.87281 314.31362 L 694.89613 314.02525 z M 823.67387 320.62346 L 824.97305 325.44396 L 828.49799 321.9092 L 823.67387 320.62346 z M 183.3158 321.13249 L 181.76185 322.93397 L 184.09924 323.37892 L 183.3158 321.13249 z M 423.54374 324.84191 L 421.22962 329.26449 L 426.21755 329.05726 L 423.54374 324.84191 z M 368.84703 347.21991 L 368.35971 349.14749 L 370.27282 348.60539 L 368.84703 347.21991 z M 277.35114 355.56999 L 278.14646 357.78387 L 279.6663 355.98807 L 277.35114 355.56999 z M 80.176408 359.13834 L 79.787275 363.44309 L 83.710129 361.62714 L 80.176408 359.13834 z " />
  </g>
  <g
     id="g4405"
     transform="matrix(1.375738,0,0,1.375738,44.976067,-8.3085419)"
     inkscape:label="Logo">
    <g
       fill="#ffffff"
       id="g444"
       transform="matrix(1.1594591,0,0,1.1594591,219.5734,65.980176)"
       inkscape:label="Earth">
      <path
         d="m 18,-0.73651 c -10.339,0 -18.737,8.3971 -18.737,18.737 0,10.339 8.3971,18.737 18.737,18.737 10.339,0 18.737,-8.3971 18.737,-18.737 0,-10.339 -8.3971,-18.737 -18.737,-18.737 z m 0,1.4727 c 9.543,10e-9 17.264,7.7208 17.264,17.264 0,9.543 -7.7208,17.264 -17.264,17.264 -9.543,0 -17.264,-7.7208 -17.264,-17.264 1e-8,-9.543 7.7208,-17.264 17.264,-17.264 z"
         fill="#ffffff"
         id="path426"
         transform="matrix(2.5136001,0,0,2.5136001,22.489005,22.487015)" />
      <path
         d="M 35.341,18 A 17.341,17.341 0 0 1 18,35.341 17.341,17.341 0 0 1 0.659,18 17.341,17.341 0 0 1 18,0.659 17.341,17.341 0 0 1 35.341,18 Z"
         fill="#678dff"
         stroke-width="1.4197"
         id="path428"
         transform="matrix(2.5136001,0,0,2.5136001,22.489005,22.487015)" />
      <path
         d="m 24.958,2.1729 c -1.022,0.568 -1.872,1.528 -3.028,1.181 -1.875,-0.562 -4.375,-1.812 -6,-0.25 -1.625,1.562 -2,3 0,2.938 2,-0.062 3.375,-2.438 4.375,-1.438 1,1 0.749,1.813 -1.625,2.125 -2.374,0.312 -4.938,0.688 -6.313,0.688 -1.375,0 -1.688,0.812 -0.75,1.688 0.938,0.876 -0.563,0.937 -2.125,1.812 -1.562,0.875 0.375,1.25 1.688,2 1.313,0.75 2.312,-0.188 2.875,-1.438 0.563,-1.25 2.981,-2.75 3.99,-2.562 1.01,0.188 1.01,0.688 0.822,1.562 -0.188,0.874 0.75,0.625 0.812,-0.375 0.062,-1 1.188,-1.75 2.062,-1.812 0.874,-0.062 1.625,1.188 0.625,1.812 -1,0.624 -2,1.125 -0.75,1.438 1.25,0.313 2.125,1.938 0.688,2.625 -1.437,0.687 -3.937,1.125 -5.062,0.562 -1.125,-0.563 -3.688,-1.375 -4.375,-0.938 -0.687,0.437 -1.062,0.89 -1.875,1.195 -0.812,0.305 -4.125,1.805 -4.188,3.743 -0.063,1.938 -0.124,4.126 1.188,4.188 1.312,0.062 4.5,-0.812 5.5,-1.625 1,-0.813 2.375,-0.625 2.812,0.312 0.437,0.937 0.125,1.5 -0.312,3 -0.437,1.5 0.286,2.25 0.987,3.562 0.701,1.312 1.263,2.062 1.263,3 0,0.938 1,1.875 2.5,0.312 1.5,-1.563 2.875,-4.625 3.5,-5.75 0.625,-1.125 1.125,-3.625 1.875,-4.125 0.75,-0.5 1.938,-1.688 1.062,-1.5 -0.876,0.188 -2.625,-0.062 -3.062,-1.312 -0.437,-1.25 -2.312,-3.625 -1.438,-3.875 0.874,-0.25 1.875,1.39 2.25,2.164 0.375,0.774 0.875,1.711 1.625,1.961 0.75,0.25 2.375,-1.673 2.875,-1.961 0.5,-0.289 0.125,-1.476 -0.875,-1.351 -1,0.125 -2.312,0 -2.312,-0.624 0,-0.624 1.25,-1.438 2.25,-1.25 1,0.188 1.75,0.5 2.375,1.25 0.625,0.75 1.875,2.125 2.375,3 0.5,0.875 0.875,1 1.125,-0.562 0.166,-1.038 0.387,-1.609 0.59,-2.222 -1.013,-5.829 -4.82,-10.683 -9.999,-13.148 z"
         fill="#80d12e"
         stroke="#80d12e"
         stroke-width="0.67367"
         id="path430"
         transform="matrix(2.5136001,0,0,2.5136001,22.489005,22.487015)" />
      <path
         transform="matrix(2.5136,0,0,2.5136,22.489,22.489)"
         d="m 18,-0.7363 c -10.339,0 -18.736,8.397 -18.736,18.736 0,10.339 8.397,18.736 18.736,18.736 10.339,0 18.736,-8.397 18.736,-18.736 0,-10.339 -8.397,-18.736 -18.736,-18.736 z m 6.9472,2.5606 0.14453,0.068255 c 5.2685,2.5076 9.1414,7.4453 10.172,13.375 l 0.01172,0.07627 -0.02344,0.07422 c -0.20605,0.62222 -0.4161,1.1608 -0.57811,2.1739 -0.06452,0.4031 -0.13716,0.70549 -0.23046,0.93748 -0.0933,0.23199 -0.21206,0.43379 -0.45908,0.50575 -0.12351,0.03599 -0.25778,0.01785 -0.35937,-0.02734 -0.10159,-0.04519 -0.17946,-0.11055 -0.25185,-0.18359 -0.14478,-0.14609 -0.26877,-0.33384 -0.40049,-0.56434 -0.45891,-0.8031 -1.7078,-2.1921 -2.3437,-2.9551 -0.5739,-0.68868 -1.2289,-0.96283 -2.1953,-1.1445 -0.39693,-0.07462 -0.89877,0.05634 -1.2833,0.2831 -0.38451,0.22675 -0.59764,0.55754 -0.59764,0.6622 0,0.04719 0.0042,0.06422 0.08799,0.12315 0.08377,0.05893 0.24444,0.1244 0.4453,0.16591 0.40173,0.08303 0.95889,0.08434 1.4297,0.02549 0.62478,-0.0781 1.1107,0.2738 1.3164,0.69139 0.10283,0.20879 0.14817,0.43598 0.11924,0.65809 -0.02893,0.22211 -0.14809,0.45342 -0.36739,0.58017 -0.05853,0.03371 -0.26585,0.20711 -0.49794,0.42187 -0.23209,0.21476 -0.51014,0.47731 -0.79892,0.72655 -0.28877,0.24924 -0.58649,0.48438 -0.88465,0.65233 -0.29816,0.16795 -0.61464,0.29634 -0.94735,0.18544 -0.93154,-0.31051 -1.4253,-1.3381 -1.8047,-2.1211 -0.17775,-0.36688 -0.51622,-0.95577 -0.89452,-1.3984 -0.18915,-0.22132 -0.3899,-0.40604 -0.5664,-0.50965 -0.17572,-0.10317 -0.30719,-0.12476 -0.42392,-0.0919 -0.0029,0.0126 -0.01023,0.06991 0.01172,0.17187 0.04638,0.21546 0.20206,0.56565 0.40439,0.94735 0.40467,0.76341 0.98466,1.6556 1.2286,2.3534 0.17804,0.50926 0.62694,0.82764 1.1698,1.0039 0.54286,0.17625 1.1643,0.1867 1.5333,0.10752 0.13526,-0.02908 0.25079,-0.04663 0.39452,-0.0021 0.07187,0.02228 0.1537,0.06964 0.21093,0.14658 0.05723,0.07695 0.0799,0.17065 0.07997,0.24403 1.48e-4,0.14677 -0.04976,0.23738 -0.10341,0.33018 -0.05365,0.0928 -0.12128,0.18422 -0.19922,0.27734 -0.31177,0.37246 -0.80053,0.7954 -1.207,1.0664 -0.10137,0.06759 -0.26463,0.27697 -0.41611,0.57812 -0.15148,0.30114 -0.30035,0.68607 -0.44715,1.0956 -0.29361,0.81902 -0.56935,1.7268 -0.9122,2.3439 -0.30136,0.54246 -0.80697,1.5994 -1.4218,2.7109 -0.61488,1.1115 -1.3376,2.2832 -2.125,3.1036 -0.79533,0.82873 -1.5551,1.069 -2.1426,0.85936 -0.58753,-0.20966 -0.89266,-0.80735 -0.89266,-1.3867 0,-0.81397 -0.51621,-1.5241 -1.2265,-2.8536 -0.34118,-0.63855 -0.70313,-1.1564 -0.93543,-1.7422 -0.23229,-0.58576 -0.31152,-1.2453 -0.07627,-2.0528 0.22113,-0.75903 0.40609,-1.2755 0.47655,-1.6778 0.07046,-0.40232 0.05009,-0.6842 -0.14638,-1.1054 -0.16913,-0.36264 -0.51584,-0.58265 -0.95126,-0.63465 -0.43542,-0.052 -0.94778,0.07842 -1.3846,0.43359 -0.58306,0.47403 -1.6359,0.8789 -2.7423,1.1971 -1.1064,0.31829 -2.2321,0.53094 -2.9687,0.49613 -0.41413,-0.01957 -0.76281,-0.23095 -0.98436,-0.53515 -0.22155,-0.3042 -0.34079,-0.68625 -0.41591,-1.1112 -0.15023,-0.84991 -0.11355,-1.8918 -0.08203,-2.8614 0.037158,-1.1431 0.97489,-2.0503 1.9453,-2.7286 0.97039,-0.67828 2.0105,-1.1323 2.4432,-1.2948 0.74772,-0.28051 1.0926,-0.70441 1.8184,-1.1661 0.28227,-0.17956 0.61837,-0.19131 1.002,-0.16591 0.38366,0.0254 0.81782,0.10817 1.2635,0.2206 0.89144,0.22485 1.8206,0.57018 2.414,0.86717 0.45136,0.22588 1.3215,0.27904 2.2345,0.1583 0.91301,-0.12073 1.8762,-0.39829 2.5546,-0.72264 0.30521,-0.14591 0.45107,-0.31745 0.51952,-0.49033 0.06846,-0.17288 0.063,-0.36546 -0.01377,-0.57421 -0.15354,-0.41751 -0.61591,-0.84871 -1.1346,-0.9786 -0.3409,-0.08536 -0.57922,-0.16494 -0.73436,-0.40028 -0.07757,-0.11767 -0.1009,-0.28339 -0.0664,-0.41015 0.03451,-0.12676 0.10168,-0.21868 0.17578,-0.30078 0.29638,-0.32839 0.79291,-0.58552 1.2851,-0.89267 0.19569,-0.12211 0.2777,-0.24748 0.31249,-0.37294 0.03479,-0.12545 0.01972,-0.26304 -0.04112,-0.39843 -0.12168,-0.27079 -0.42506,-0.48702 -0.70887,-0.46689 -0.35823,0.025412 -0.81446,0.20548 -1.164,0.48642 -0.34958,0.28094 -0.58731,0.64623 -0.61142,1.0351 -0.03689,0.59494 -0.30977,1.0231 -0.70496,1.164 -0.1976,0.07046 -0.48213,0.02284 -0.62704,-0.17187 -0.14491,-0.19472 -0.15128,-0.43383 -0.09375,-0.70126 0.09144,-0.4251 0.11024,-0.71796 0.05469,-0.8573 -0.05555,-0.13934 -0.17258,-0.24914 -0.6289,-0.33408 -0.15719,-0.029289 -0.45972,0.0092 -0.80858,0.13281 -0.34885,0.12361 -0.74719,0.32314 -1.1309,0.5664 -0.7675,0.48652 -1.4787,1.17 -1.7109,1.6856 -0.2978,0.66118 -0.71165,1.2585 -1.2773,1.6054 -0.56568,0.34694 -1.3008,0.39419 -2.0351,-0.02529 -0.61875,-0.35343 -1.4172,-0.62417 -1.9375,-0.96503 -0.13006,-0.08521 -0.24637,-0.17617 -0.33984,-0.29687 -0.093466,-0.1207 -0.16274,-0.28848 -0.14453,-0.46484 0.036423,-0.35272 0.31359,-0.57759 0.73621,-0.81434 0.81531,-0.45672 1.6083,-0.70275 2.0098,-0.91014 0.16666,-0.086089 0.22995,-0.16061 0.24424,-0.17228 -0.0016,-0.00404 -0.0023,-0.00678 -0.0099,-0.021176 -0.02108,-0.040247 -0.07819,-0.11615 -0.17968,-0.21093 -0.25828,-0.24121 -0.44267,-0.48788 -0.54687,-0.74402 -0.1042,-0.25615 -0.12281,-0.53443 -0.01953,-0.77733 0.10328,-0.2429 0.31489,-0.42631 0.57606,-0.53905 0.26117,-0.11275 0.579,-0.16612 0.95331,-0.16612 1.3184,0 3.8942,-0.37115 6.2715,-0.68358 1.1538,-0.15164 1.7255,-0.45767 1.8573,-0.66405 0.06589,-0.10319 0.07547,-0.18296 0.01953,-0.33799 -0.0559,-0.15502 -0.19912,-0.36506 -0.42965,-0.59559 -0.18136,-0.18136 -0.29324,-0.19064 -0.52343,-0.12705 -0.23018,0.06359 -0.5432,0.2508 -0.89842,0.48642 -0.71044,0.47124 -1.6041,1.1332 -2.7247,1.1679 -0.53685,0.016642 -0.94961,-0.056871 -1.2557,-0.26562 -0.30612,-0.20875 -0.4523,-0.57462 -0.42187,-0.92967 0.06085,-0.7101 0.61488,-1.4697 1.4531,-2.2755 0.89969,-0.86481 2.0649,-0.94993 3.1757,-0.75389 1.1109,0.19604 2.2156,0.65595 3.1289,0.92967 0.4824,0.1448 0.87487,0.025416 1.3242,-0.22265 0.44933,-0.24807 0.91899,-0.62919 1.463,-0.93152 z"
         filter="url(#d)"
         opacity="0.53788"
         stroke-width="1.4737"
         id="path434" />
      <path
         d="m 67.734,16.326 c -1.2704,0 -2.3402,0.13157 -3.3538,0.75086 -0.95125,0.58121 -1.4055,1.5103 -1.5885,1.911 -0.06231,0.01503 -0.21537,0.04708 -0.54054,0.08372 -0.32301,0.03639 -0.48091,0.03995 -0.54622,0.03927 -0.26712,-0.34941 -0.91751,-1.1547 -1.9751,-1.51 -1.126,-0.37822 -2.1964,-0.26874 -3.4349,0.01395 -1.2385,0.28269 -2.2508,0.6502 -3.1011,1.4795 -0.79942,0.77963 -1.0392,1.788 -1.1281,2.218 -0.05751,0.02815 -0.19946,0.09294 -0.5054,0.19999 -0.31233,0.10929 -0.4631,0.14592 -0.52452,0.15916 -0.33802,-0.28111 -1.1501,-0.91992 -2.2603,-1.0309 -1.1819,-0.11819 -2.203,0.22498 -3.3476,0.77618 -1.1446,0.5512 -2.0478,1.1344 -2.6923,2.1322 -0.60429,0.93549 -0.61145,1.968 -0.60255,2.4092 -0.04922,0.0397 -0.17294,0.13466 -0.45372,0.31109 -0.2786,0.17506 -0.41662,0.24542 -0.47336,0.27234 -0.39172,-0.19869 -1.3273,-0.64066 -2.435,-0.50178 -1.1786,0.14777 -2.097,0.70912 -3.0903,1.5012 -0.99323,0.79208 -1.745,1.5623 -2.1513,2.6784 -0.38173,1.0486 -0.15829,2.0598 -0.05168,2.4862 -0.038,0.04844 -0.13601,0.16701 -0.37155,0.40256 -0.22756,0.22756 -0.35018,0.32984 -0.40256,0.37104 -0.42736,-0.10678 -1.4356,-0.33221 -2.4831,0.04909 -1.1161,0.40631 -1.8863,1.1612 -2.6784,2.1544 -0.79208,0.99324 -1.3565,1.9117 -1.5043,3.0903 -0.13898,1.1084 0.30432,2.0448 0.50281,2.436 -0.0271,0.0583 -0.09777,0.19727 -0.27027,0.47181 -0.17315,0.27557 -0.26793,0.39916 -0.30851,0.44855 -0.43881,-0.009 -1.4736,-8.63e-4 -2.4117,0.60513 -0.99772,0.64449 -1.581,1.5503 -2.1322,2.6949 -0.5512,1.1446 -0.89695,2.1631 -0.77876,3.345 0.11119,1.1119 0.75312,1.9291 1.0335,2.266 -0.01346,0.05989 -0.05092,0.20801 -0.15968,0.51883 -0.10917,0.31198 -0.17467,0.45441 -0.20309,0.5116 -0.43167,0.08932 -1.4395,0.32416 -2.2174,1.1219 -0.8293,0.85035 -1.1937,1.8626 -1.4764,3.1011 -0.28269,1.2385 -0.39216,2.309 -0.01395,3.4349 0.35525,1.0576 1.1606,1.708 1.51,1.9751 6.72e-4,0.06531 -0.0029,0.22321 -0.03927,0.54622 -0.03636,0.3227 -0.06803,0.47729 -0.0832,0.54054 -0.3993,0.18223 -1.3293,0.63869 -1.9115,1.5916 -0.61928,1.0136 -0.75086,2.0803 -0.75086,3.3507 0,1.2704 0.13158,2.3397 0.75086,3.3533 0.58222,0.95291 1.5122,1.4069 1.9115,1.589 0.01517,0.06325 0.04684,0.21784 0.0832,0.54054 0.03639,0.32301 0.03995,0.48091 0.03927,0.54622 -0.34941,0.26712 -1.1547,0.91751 -1.51,1.9751 -0.37822,1.126 -0.26874,2.1964 0.01395,3.4349 0.28269,1.2385 0.6471,2.2508 1.4764,3.1011 0.77771,0.79745 1.7834,1.0329 2.2154,1.1224 0.03073,0.06049 0.09857,0.20649 0.20516,0.51108 0.10788,0.30832 0.14597,0.45922 0.15968,0.52142 -0.28044,0.33692 -0.92234,1.1516 -1.0335,2.2634 -0.11819,1.1819 0.22756,2.203 0.77876,3.3476 0.5512,1.1446 1.1344,2.0478 2.1322,2.6923 0.93727,0.60544 1.9707,0.61413 2.4102,0.60513 0.03929,0.04823 0.13369,0.17044 0.31006,0.45114 0.1725,0.27453 0.24317,0.41403 0.27027,0.47232 -0.1988,0.39214 -0.64164,1.3288 -0.50281,2.436 0.14777,1.1786 0.71222,2.0965 1.5043,3.0897 0.79208,0.99323 1.5623,1.7455 2.6784,2.1518 1.048,0.3815 2.0583,0.15837 2.4851,0.0517 0.04807,0.0383 0.16594,0.137 0.40049,0.37155 0.23561,0.23561 0.33361,0.35287 0.37155,0.40049 -0.10668,0.42685 -0.32982,1.4372 0.05168,2.4851 0.40632,1.1161 1.1581,1.8863 2.1513,2.6784 0.99323,0.79208 1.9117,1.354 3.0903,1.5017 1.106,0.13868 2.039,-0.30264 2.4319,-0.50178 h 5.17e-4 c 0.06066,0.0284 0.2035,0.10063 0.47594,0.27182 0.2807,0.17637 0.40291,0.27076 0.45114,0.31006 -0.009,0.4395 -2.46e-4,1.4729 0.60513,2.4102 0.64449,0.99772 1.5478,1.581 2.6923,2.1322 1.1446,0.5512 2.1657,0.89695 3.3476,0.77876 1.1103,-0.11102 1.9223,-0.75238 2.2603,-1.0335 0.06142,0.0132 0.21218,0.0504 0.52452,0.15968 0.30594,0.10705 0.44788,0.17132 0.5054,0.19947 0.08886,0.42993 0.32867,1.4383 1.1281,2.218 0.85035,0.8293 1.8626,1.1968 3.1011,1.4795 1.2385,0.28269 2.309,0.39212 3.4349,0.0139 1.0576,-0.35524 1.708,-1.1606 1.9751,-1.51 0.06531,-6.7e-4 0.22321,0.003 0.54622,0.0393 0.32516,0.0366 0.47823,0.0687 0.54054,0.0837 0.18301,0.40066 0.63728,1.3298 1.5885,1.911 1.0136,0.61929 2.0834,0.75086 3.3538,0.75086 1.2704,0 2.3371,-0.13157 3.3507,-0.75086 0.95124,-0.5812 1.4055,-1.5103 1.5885,-1.911 0.0615,-0.0148 0.21432,-0.0466 0.54364,-0.0837 0.32511,-0.0366 0.48171,-0.04 0.54622,-0.0393 0.26709,0.34944 0.91446,1.1548 1.972,1.51 1.126,0.37822 2.199,0.26879 3.4375,-0.0139 1.2385,-0.28269 2.2513,-0.6502 3.1016,-1.4795 0.79892,-0.77914 1.0361,-1.7865 1.125,-2.2169 0.05559,-0.0271 0.19544,-0.091 0.5085,-0.20051 0.30832,-0.10788 0.45922,-0.14597 0.52142,-0.15968 0.33799,0.28115 1.1501,0.9225 2.2603,1.0335 1.1819,0.11818 2.2035,-0.22756 3.3481,-0.77876 1.1446,-0.55121 2.0504,-1.1344 2.6949,-2.1322 0.60444,-0.93572 0.60841,-1.9662 0.59945,-2.4071 0.05231,-0.0429 0.18057,-0.14121 0.45424,-0.31316 0.27644,-0.1737 0.41734,-0.24481 0.47646,-0.27234 0.3928,0.19911 1.3252,0.64099 2.4314,0.5023 1.1786,-0.14777 2.097,-0.70964 3.0902,-1.5017 0.993233,-0.79208 1.745003,-1.5623 2.151303,-2.6784 0.38161,-1.0483 0.15885,-2.059 0.0522,-2.4856 0.0387,-0.0485 0.13754,-0.16648 0.37104,-0.39998 0.23361,-0.23361 0.3528,-0.33284 0.40204,-0.37155 0.42618,0.10658 1.4378,0.33016 2.4867,-0.0517 1.1161,-0.40632 1.8832,-1.1586 2.6753,-2.1518 0.7921,-0.9932 1.3565,-1.9112 1.5043,-3.0897 0.13874,-1.1065 -0.30277,-2.0424 -0.50178,-2.435 0.0269,-0.05673 0.0973,-0.19476 0.27234,-0.47336 0.17721,-0.28203 0.27034,-0.40344 0.30851,-0.45114 0.4402,0.009 1.4753,-1.58e-4 2.4117,-0.60513 0.99772,-0.64449 1.581,-1.5478 2.1322,-2.6923 0.5512,-1.1446 0.89385,-2.1657 0.77566,-3.3476 -0.11102,-1.1102 -0.74932,-1.9228 -1.0304,-2.2608 0.0142,-0.06536 0.053,-0.22053 0.15916,-0.524 0.1067,-0.30491 0.17416,-0.45125 0.20413,-0.5116 0.43188,-0.0894 1.4361,-0.32446 2.2138,-1.1219 0.8293,-0.85035 1.1968,-1.8626 1.4795,-3.1011 0.28269,-1.2385 0.38909,-2.309 0.0109,-3.4349 -0.35539,-1.058 -1.1594,-1.7099 -1.5084,-1.9766 2e-5,-0.06056 0.003,-0.21288 0.0403,-0.54467 0.0369,-0.3272 0.0685,-0.47954 0.0827,-0.54105 0.40014,-0.18263 1.3279,-0.63679 1.9094,-1.5885 0.61929,-1.0136 0.75344,-2.0829 0.75344,-3.3533 0,-1.2704 -0.13416,-2.3371 -0.75344,-3.3507 -0.58154,-0.95179 -1.5093,-1.4084 -1.9094,-1.5911 -0.0142,-0.06152 -0.0458,-0.21386 -0.0827,-0.54105 -0.0374,-0.33179 -0.0403,-0.48411 -0.0403,-0.54467 0.34904,-0.26674 1.153,-0.91861 1.5084,-1.9766 0.37822,-1.126 0.27182,-2.1964 -0.0109,-3.4349 -0.28269,-1.2385 -0.6502,-2.2508 -1.4795,-3.1011 -0.77914,-0.79892 -1.7865,-1.0361 -2.2169,-1.125 -0.0271,-0.05559 -0.0915,-0.19544 -0.20103,-0.5085 -0.10619,-0.30347 -0.14493,-0.45864 -0.15916,-0.524 0.28157,-0.33876 0.91951,-1.1517 1.0304,-2.2608 0.11818,-1.1819 -0.22446,-2.2004 -0.77566,-3.345 -0.5512,-1.1446 -1.1344,-2.0504 -2.1322,-2.6949 -0.93791,-0.60585 -1.9753,-0.61416 -2.4143,-0.60513 -0.0406,-0.04939 -0.13587,-0.17298 -0.30902,-0.44855 -0.1725,-0.27453 -0.24265,-0.41351 -0.26975,-0.47181 0.19849,-0.39124 0.64127,-1.3276 0.50229,-2.436 -0.14777,-1.1786 -0.71222,-2.097 -1.5043,-3.0903 -0.79208,-0.99323 -1.5592,-1.7481 -2.6753,-2.1544 -1.0477,-0.38142 -2.0575,-0.15584 -2.4846,-0.04909 -0.0531,-0.04118 -0.17643,-0.14336 -0.40411,-0.37104 -0.23348,-0.23348 -0.33227,-0.35274 -0.37104,-0.40204 0.10658,-0.42618 0.33016,-1.4378 -0.0517,-2.4867 -0.40632,-1.1161 -1.1586,-1.8863 -2.151803,-2.6784 -0.99323,-0.79208 -1.9117,-1.3534 -3.0902,-1.5012 -1.1073,-0.13884 -2.0426,0.303 -2.4345,0.50178 -0.05673,-0.02692 -0.19476,-0.09728 -0.47336,-0.27234 -0.27366,-0.17195 -0.40193,-0.27024 -0.45424,-0.31316 0.0088,-0.44183 0.0043,-1.4723 -0.59945,-2.4071 -0.64449,-0.99772 -1.5503,-1.581 -2.6949,-2.1322 -1.1446,-0.5512 -2.1662,-0.89437 -3.3481,-0.77618 -1.1102,0.11102 -1.9223,0.74984 -2.2603,1.0309 -0.0622,-0.01371 -0.2131,-0.05128 -0.52142,-0.15916 -0.31306,-0.10954 -0.45291,-0.17392 -0.5085,-0.20102 -0.08893,-0.43039 -0.32607,-1.4378 -1.125,-2.2169 -0.85035,-0.8293 -1.8626,-1.1968 -3.1011,-1.4795 -1.2385,-0.28269 -2.3121,-0.39216 -3.438,-0.01395 -1.0575,0.35523 -1.7049,1.1605 -1.972,1.51 -0.06451,7.25e-4 -0.22111,-0.0026 -0.54622,-0.03927 -0.32932,-0.03711 -0.48213,-0.06891 -0.54364,-0.08372 -0.18301,-0.40066 -0.63729,-1.3298 -1.5885,-1.911 -1.0136,-0.61928 -2.0803,-0.75086 -3.3507,-0.75086 z m -0.0021,7.7365 c 1.4635,-1e-6 2.9099,0.0732 4.3362,0.21342 0.18004,0.02923 0.36327,0.05574 0.5519,0.077 0.19961,0.02249 0.39429,0.03805 0.58653,0.04961 2.862,0.35705 5.6367,0.9916 8.2982,1.8738 0.20826,0.0878 0.42171,0.17216 0.64596,0.25063 0.23248,0.08135 0.46032,0.15074 0.68575,0.21342 2.641,0.97182 5.1622,2.1901 7.5344,3.6292 0.18784,0.13569 0.38168,0.26925 0.58808,0.39894 0.19446,0.12219 0.38724,0.23288 0.57929,0.33796 2.38,1.5488 4.5987,3.3236 6.627,5.2937 0.13867,0.1555 0.28245,0.31035 0.43667,0.46457 0.15422,0.15422 0.30907,0.298 0.46457,0.43667 1.9696,2.0277 3.7442,4.2457 5.2927,6.6249 0.1054,0.19272 0.21638,0.3857 0.339,0.58084 0.13001,0.20691 0.26358,0.40188 0.39946,0.59014 1.4383,2.3712 2.6567,4.8907 3.6282,7.5303 0.0628,0.22625 0.13229,0.45447 0.21394,0.68781 0.0787,0.22479 0.16311,0.4393 0.25115,0.64802 0.88224,2.6621 1.517,5.4376 1.8738,8.3003 0.0115,0.19106 0.0267,0.38457 0.0491,0.58291 0.0213,0.18881 0.0477,0.3718 0.077,0.5519 0.14011,1.4256 0.21291,2.8708 0.21291,4.3336 0,1.4649 -0.0729,2.9127 -0.21343,4.3403 -0.029,0.17921 -0.0553,0.36109 -0.0765,0.5488 -0.0221,0.19654 -0.0375,0.38835 -0.0491,0.57774 -0.35744,2.8689 -0.99334,5.6504 -1.8784,8.3178 -0.0862,0.2051 -0.16932,0.41506 -0.2465,0.63562 -0.08,0.22874 -0.14833,0.45298 -0.21032,0.67489 -0.97422,2.6492 -2.1968,5.1778 -3.6411,7.5566 -6.4e-4,0.0011 -10e-4,0.002 -0.002,0.0031 -0.13181,0.18343 -0.26178,0.3726 -0.38809,0.57361 -0.11872,0.18895 -0.22658,0.37623 -0.32918,0.56276 -1.5559,2.3928 -3.3402,4.6226 -5.3216,6.6601 -0.14906,0.13374 -0.29755,0.27223 -0.44545,0.42013 -0.1488,0.1488 -0.28786,0.29767 -0.4222,0.44752 -2.0308,1.9746 -4.2529,3.7532 -6.6368,5.3051 -0.1936,0.10579 -0.38791,0.21737 -0.58394,0.34055 -0.20785,0.1306 -0.40319,0.26484 -0.59221,0.40153 -2.368,1.4363 -4.8842,2.6533 -7.52,3.6241 -0.22875,0.0633 -0.46008,0.13342 -0.69608,0.216 -0.22705,0.0795 -0.44305,0.16506 -0.65371,0.25425 -2.6679,0.88384 -5.4496,1.5187 -8.3189,1.8748 -0.18302,0.0116 -0.36842,0.0267 -0.55811,0.0481 -0.18404,0.0207 -0.36312,0.0456 -0.53898,0.0739 -1.4304,0.14108 -2.8812,0.21446 -4.3491,0.21446 -1.4677,0 -2.9178,-0.0729 -4.3481,-0.21394 -0.17589,-0.0283 -0.3544,-0.0537 -0.53847,-0.0744 -0.19023,-0.0214 -0.37614,-0.0364 -0.55966,-0.0481 -2.8683,-0.35601 -5.6492,-0.99086 -8.3163,-1.8743 -0.21112,-0.0894 -0.42767,-0.17513 -0.65526,-0.25477 -0.23671,-0.0828 -0.46873,-0.15306 -0.69815,-0.21652 -2.6351,-0.97065 -5.1504,-2.1875 -7.5179,-3.6236 -0.18903,-0.13669 -0.38436,-0.27093 -0.59221,-0.40153 -0.19712,-0.12386 -0.39253,-0.23582 -0.58704,-0.3421 -2.3824,-1.5512 -4.603,-3.3291 -6.6327,-5.3025 -0.13473,-0.15019 -0.27409,-0.29942 -0.42323,-0.44855 -0.14829,-0.14829 -0.29703,-0.28711 -0.44648,-0.42116 -1.9753,-2.0314 -3.7543,-4.2542 -5.3067,-6.6389 -0.10553,-0.1932 -0.21701,-0.38713 -0.34003,-0.58291 -0.13112,-0.20867 -0.26582,-0.40509 -0.40308,-0.5948 -1.4357,-2.3674 -2.6521,-4.8829 -3.6225,-7.5179 -0.0633,-0.2286 -0.13348,-0.45973 -0.21601,-0.69556 -0.07945,-0.22705 -0.16506,-0.44305 -0.25425,-0.65371 -0.8834,-2.6665 -1.518,-5.4466 -1.8743,-8.3142 -0.01164,-0.1847 -0.027,-0.37178 -0.04858,-0.56327 -0.0207,-0.18368 -0.04565,-0.3619 -0.0739,-0.53744 -0.14123,-1.4313 -0.21497,-2.8829 -0.21497,-4.3517 0,-1.4666 0.07363,-2.9157 0.21446,-4.345 0.02846,-0.17644 0.05359,-0.35576 0.07441,-0.54054 0.02178,-0.19329 0.03693,-0.38207 0.04858,-0.56844 0.35562,-2.8613 0.98863,-5.6356 1.8691,-8.2967 0.09109,-0.21432 0.17847,-0.43477 0.25942,-0.66611 0.08413,-0.24044 0.1555,-0.47555 0.21962,-0.70848 0.96776,-2.6256 2.1797,-5.1322 3.6096,-7.492 0.1405,-0.1935 0.27832,-0.39437 0.41238,-0.60772 0.1269,-0.20197 0.24158,-0.40159 0.34985,-0.601 1.545,-2.3712 3.3142,-4.5821 5.2777,-6.6037 0.15591,-0.13898 0.31099,-0.28308 0.4656,-0.4377 0.15465,-0.15465 0.29856,-0.31018 0.4377,-0.46612 2.027,-1.9689 4.2445,-3.742 6.6229,-5.2901 0.19304,-0.1056 0.38678,-0.21712 0.58239,-0.34003 0.2064,-0.12969 0.40023,-0.26326 0.58808,-0.39894 2.3717,-1.4388 4.892,-2.657 7.5324,-3.6287 0.2261,-0.06282 0.45463,-0.13235 0.68781,-0.21394 0.22486,-0.07868 0.43872,-0.16359 0.6475,-0.25166 2.6606,-0.88176 5.4346,-1.5158 8.2956,-1.8728 0.19274,-0.01155 0.38793,-0.02706 0.58808,-0.04961 0.18881,-0.02127 0.3717,-0.04773 0.5519,-0.077 1.4259,-0.14016 2.8715,-0.21342 4.3346,-0.21342 z"
         filter="url(#c)"
         stroke="#160d1d"
         stroke-width="2.1167"
         id="path436" />
      <path
         d="m 87.243,89.725 c -0.59536,0.25418 -1.1147,0.65996 -1.5194,1.137 l -0.04703,0.05433 -13.608,18.832 -0.05103,0.0898 c -0.61576,1.085 -0.89476,2.4764 -0.3742,3.6957 0.52717,1.2348 1.8488,2.1742 3.1688,2.3276 l 22.768,3.164 c 0.65834,0.10292 1.3591,0.002 1.9544,-0.25227 0.8887,-0.37941 1.6521,-1.1351 2.0488,-2.0108 0.4236,-0.93509 0.41673,-2.1089 0.0195,-3.0392 -0.49856,-1.1678 -1.687,-2.0556 -2.9075,-2.2986 l -0.0582,-0.011 -0.0561,-0.008 -16.789,-2.2613 9.9932,-13.706 0.01407,-0.02157 c 0.73563,-1.0661 0.87478,-2.6074 0.3687,-3.7928 -0.37941,-0.88871 -1.1894,-1.6907 -2.1294,-2.0172 -0.89781,-0.31185 -1.9417,-0.24594 -2.7949,0.11832 z"
         stroke="#160d1d"
         stroke-width="2.1167"
         id="path438" />
      <path
         d="m 8.2164,73.411 c -0.037437,0.92697 0.27326,1.9268 0.88368,2.6552 0.63913,0.76274 1.6771,1.2345 2.6426,1.2735 1.2879,0.05202 2.6792,-0.62554 3.4145,-1.6919 l 0.01268,-0.02071 9.2646,-14.208 8.1029,14.939 0.03108,0.04989 c 0.66069,1.0546 1.9127,1.8502 3.1815,1.9014 1.0107,0.04082 2.1104,-0.36918 2.834,-1.0973 0.67766,-0.68186 1.115,-1.6638 1.154,-2.6293 0.02506,-0.6204 -0.09585,-1.3133 -0.46087,-1.9193 l -11.063,-20.195 0.01812,0.03797 c -0.61219,-1.1794 -1.9598,-2.0807 -3.3013,-2.1349 -1.3247,-0.05351 -2.5264,0.70309 -3.3219,1.6641 l -0.06364,0.0776 -0.05612,0.08359 -12.714,19.327 -0.035654,0.06268 c -0.30212,0.54778 -0.4975,1.1773 -0.52362,1.8242 z"
         stroke="#160d1d"
         stroke-width="2.1167"
         id="path440" />
      <path
         d="m 72.871,36.644 c 0.51054,0.398 1.117,0.65608 1.7303,0.77945 l 0.07032,0.01483 23.066,2.7955 0.10323,0.0013 c 1.2474,0.01383 2.6001,-0.41537 3.4153,-1.461 0.82547,-1.0589 1.008,-2.6701 0.5034,-3.8994 l -8.2491,-21.455 c -0.22852,-0.62592 -0.65602,-1.1903 -1.1666,-1.5883 -0.7621,-0.5941 -1.7928,-0.89642 -2.7511,-0.81979 -1.0233,0.08183 -2.0472,0.65588 -2.6691,1.4536 -0.78068,1.0014 -0.98248,2.4711 -0.60454,3.6568 l 0.01838,0.05629 0.02023,0.05307 6.1459,15.787 -16.83,-2.1123 -0.02571,-0.0022 c -1.289,-0.12781 -2.7051,0.49627 -3.4976,1.5128 -0.5941,0.76209 -0.90399,1.859 -0.73482,2.8396 0.16157,0.93659 0.7244,1.8182 1.4561,2.3886 z"
         stroke="#160d1d"
         stroke-width="2.1167"
         id="path442" />
    </g>
    <text
       xml:space="preserve"
       transform="matrix(0.43805711,0,0,0.43805711,-213.28948,288.74214)"
       id="text675"
       style="font-size:192px;font-family:Comfortaa;-inkscape-font-specification:Comfortaa;text-align:center;white-space:pre;shape-inside:url(#rect677);display:inline;fill:#18281e;stroke:#160d1d;stroke-width:5;stroke-dasharray:none;stroke-opacity:1"
       inkscape:label="Refresh"><tspan
         x="830.67188"
         y="-260.76097"
         id="tspan7757"><tspan
           style="font-family:Stanberry;-inkscape-font-specification:Stanberry;fill:#ffffff"
           id="tspan7755">Refresh</tspan></tspan></text>
  </g>
</svg>
